<svg width="100" height="31" viewBox="0 0 100 31" fill="none" xmlns="http://www.w3.org/2000/svg">
<path d="M21.0279 0.995264L18.1982 1.98983L18.1826 9.59309C18.167 17.305 18.193 18.6474 18.3591 19.6692C18.7849 22.2887 19.9064 24.5279 21.7548 26.4518C22.7049 27.4409 23.5876 28.0985 24.8285 28.7453C26.2823 29.5007 28.2397 29.9953 29.7662 29.9953H30.0621V26.9627V23.9246L29.5585 23.892C28.8628 23.8485 28.1255 23.6366 27.4349 23.2833C25.5554 22.3268 24.2989 20.4898 24.0445 18.3377C24.0133 18.0442 23.9874 16.8322 23.9874 15.3322V12.8214H27.0248H30.0621V9.99526V7.16918H27.0248H23.9874V3.58222C23.9874 0.745264 23.9718 -0.00473595 23.9251 0.00069809C23.8887 0.00069809 22.5855 0.451786 21.0279 0.995264Z" fill="black"/>
<path d="M90.9654 0.994579L88.1357 1.98915V10.4891C88.1357 18.4022 88.1409 19.0272 88.2292 19.5326C88.6861 22.2283 89.6882 24.3098 91.4223 26.2011C92.4763 27.3424 93.4317 28.0815 94.7245 28.7446C96.1991 29.5 97.6477 29.8859 99.3507 29.9783L99.9997 30.0109V26.9674V23.9239L99.4701 23.8913C99.1742 23.8696 98.7588 23.8098 98.5407 23.75C95.9602 23.0544 94.1742 20.875 93.9249 18.1033C93.899 17.7826 93.873 16.462 93.873 15.1685V12.8207H96.9364H99.9997V9.99458V7.16849H96.9364H93.873V3.58154C93.873 1.60871 93.8574 -0.00542068 93.8367 1.52588e-05C93.8107 1.52588e-05 92.5231 0.451101 90.9654 0.994579Z" fill="black"/>
<path d="M6.69263 6.68455C4.91693 6.85303 3.20353 7.79868 2.03011 9.26607C-0.965732 13.0215 0.207684 18.6411 4.42887 20.728C5.46729 21.2443 6.30841 21.4074 7.91796 21.4074C9.1433 21.4074 9.35618 21.44 9.61059 21.6628C10.2181 22.2009 9.99481 23.19 9.21599 23.4128C9.0758 23.4509 7.60125 23.4726 4.50675 23.4726H0V26.6248V29.7824L5.05192 29.7606C9.57425 29.7443 10.135 29.7335 10.4621 29.6519C12.0976 29.2389 13.4372 28.3911 14.4029 27.1628C15.7944 25.3856 16.324 23.1574 15.8878 20.9237C15.3946 18.3911 13.6085 16.2824 11.2513 15.4563C10.4102 15.1628 9.94289 15.0976 8.46314 15.065C7.09761 15.0324 6.98338 15.0161 6.72897 14.7824C6.56802 14.6356 6.43821 14.3041 6.43821 14.0432C6.43821 13.5922 6.74455 13.1574 7.15472 13.0378C7.27933 13.0052 8.76947 12.9835 11.3863 12.9835H15.4206V9.80411V6.62477L11.3084 6.6302C9.04465 6.63564 6.96781 6.66281 6.69263 6.68455Z" fill="black"/>
<path d="M42.6786 6.68489C40.7991 6.90772 38.8053 7.67402 37.2373 8.76641C35.363 10.0762 33.9299 11.761 32.9331 13.8262C32.4865 14.7501 32.2425 15.4295 32.0089 16.3751C31.6454 17.8642 31.6558 17.6686 31.635 23.9186L31.6143 29.5599H34.527H37.4346V24.299C37.4346 19.8316 37.445 18.9675 37.5125 18.5273C37.7565 16.9675 38.5821 15.4295 39.7139 14.4132C40.8926 13.3588 42.1387 12.8208 43.7326 12.6849L44.1324 12.6468V9.63598V6.62511L43.6028 6.63054C43.3069 6.63598 42.8915 6.65772 42.6786 6.68489Z" fill="black"/>
<path d="M53.3234 7.00002C51.1063 7.19567 49.0866 8.05437 47.3057 9.54893C44.2631 12.1033 42.7574 16.4131 43.4843 20.5C43.7387 21.9239 44.1593 23.1033 44.8499 24.3152C45.961 26.2555 47.4148 27.6576 49.4345 28.7228C50.7689 29.4239 52.6796 29.8859 54.2631 29.8859C55.6183 29.8859 57.3057 29.5218 58.5259 28.9565C58.7907 28.837 59.0399 28.7228 59.0762 28.7065C59.123 28.6848 59.1385 28.7881 59.1385 29.1196V29.5598H62.0202H64.9018V18.2555V6.9511H62.0202H59.1385V7.54893C59.1385 7.87502 59.1282 8.14676 59.1178 8.14676C59.1074 8.14676 58.936 8.07067 58.7387 7.97828C57.1136 7.21741 55.0783 6.84784 53.3234 7.00002ZM55.0939 13.1196C56.1323 13.3098 57.0461 13.7989 57.8353 14.5815C58.5882 15.337 59.1489 16.4674 59.3255 17.6033C59.6318 19.5544 58.8218 21.6033 57.2953 22.7391C56.9007 23.0381 56.1479 23.4294 55.7117 23.5707C54.8758 23.837 53.8114 23.8641 52.9859 23.6413C52.4823 23.5055 51.7034 23.1196 51.2777 22.7989C50.5716 22.2663 49.8602 21.3478 49.5331 20.5489C49.206 19.7446 49.1437 19.3968 49.1489 18.4185C49.1489 17.3913 49.2268 17.0055 49.5799 16.2174C49.855 15.5978 50.1095 15.2065 50.5612 14.712C51.7398 13.4185 53.4532 12.8152 55.0939 13.1196Z" fill="black"/>
<path d="M76.4794 7.01049C74.2572 7.21158 72.144 8.14092 70.3683 9.6844C69.3143 10.6029 68.1617 12.1681 67.6009 13.4453C66.874 15.0866 66.5625 16.5974 66.5625 18.4616C66.5625 21.4779 67.5594 24.1246 69.5272 26.3203C72.6009 29.7496 77.5594 30.8257 81.7442 28.967C83.0578 28.3855 84.1949 27.5757 85.2281 26.4942C85.7889 25.9072 86.5002 25.0105 86.5002 24.8855C86.5002 24.8366 81.8117 21.4616 81.739 21.4616C81.7183 21.4616 81.6456 21.5431 81.5781 21.6464C81.3548 21.9888 80.7266 22.6029 80.2904 22.9072C78.8263 23.9235 76.9259 24.0811 75.3579 23.3094C74.3351 22.8148 73.5199 22.0159 72.9592 20.967C72.5075 20.1301 72.2686 18.8529 72.3725 17.8801C72.6321 15.5703 74.0911 13.8094 76.2614 13.1898C76.8533 13.0214 78.0371 13.0214 78.6809 13.1898C79.2105 13.3257 79.9529 13.679 80.4047 14.0051C80.7473 14.2496 81.251 14.7387 81.5262 15.0974L81.7079 15.3366L84.0339 13.6301C85.3164 12.6898 86.386 11.9072 86.4171 11.8855C86.5002 11.8257 85.9083 11.0594 85.2281 10.3474C83.5095 8.5431 81.4015 7.42897 79.0547 7.08658C78.3382 6.98331 77.1648 6.94527 76.4794 7.01049Z" fill="black"/>
</svg>
