<svg width="23" height="31" viewBox="0 0 23 31" fill="none" xmlns="http://www.w3.org/2000/svg">
<path d="M11.2461 0.125C13.6436 0.125 15.9771 0.899983 17.8984 2.33398C19.8198 3.76799 21.2262 5.7846 21.9082 8.08301C22.5901 10.3812 22.5116 12.8382 21.6836 15.0879C20.8633 17.3164 19.3505 19.2225 17.3691 20.5293V24.252C17.3691 25.8759 16.7245 27.4337 15.5762 28.582C14.4279 29.7302 12.8699 30.375 11.2461 30.375H10.6689L10.6621 30.374C9.11917 30.1901 7.69866 29.4412 6.67578 28.2715C5.65289 27.1017 5.0995 25.5938 5.12305 24.04V20.5283C3.1422 19.2215 1.62973 17.316 0.80957 15.0879C-0.0184629 12.8382 -0.096975 10.3813 0.584961 8.08301C1.267 5.78459 2.67339 3.76799 4.59473 2.33398C6.51594 0.900108 8.8488 0.125088 11.2461 0.125ZM11.2461 2.38379C10.9169 2.38601 10.5878 2.40518 10.2607 2.44238L10.2617 2.44336C8.44673 2.655 6.74066 3.42132 5.37793 4.63867C4.01527 5.85597 3.06168 7.46452 2.64746 9.24414C2.23328 11.0238 2.37931 12.8881 3.06445 14.582C3.70685 16.1702 4.79404 17.5363 6.19238 18.5176L6.47559 18.709L6.47754 18.71C6.7533 18.8932 6.97954 19.1417 7.13574 19.4336C7.29194 19.7255 7.37363 20.0517 7.37305 20.3828V24.0352C7.34759 25.0276 7.68966 25.9947 8.33398 26.75C8.97726 27.504 9.87625 27.9938 10.8584 28.126C11.3987 28.1803 11.9453 28.1204 12.4609 27.9502C12.9765 27.78 13.4508 27.5039 13.8525 27.1387C14.2543 26.7734 14.5745 26.3272 14.793 25.8301C15.0113 25.3331 15.1228 24.7958 15.1201 24.2529V20.3828L15.125 20.2578C15.1448 19.9667 15.2282 19.6829 15.3701 19.4268C15.5322 19.1342 15.7653 18.8869 16.0479 18.708C17.6553 17.6695 18.8835 16.1387 19.5498 14.3447C20.2162 12.5505 20.2851 10.5891 19.7451 8.75293C19.2051 6.91663 18.0854 5.30411 16.5537 4.15625C15.0221 3.00846 13.1601 2.38661 11.2461 2.38379Z" fill="#FABB18" stroke="#FABB18" stroke-width="0.25"/>
<path d="M16.3701 21.3779V23.627H6.12305V21.3779H16.3701Z" fill="#FABB18" stroke="#FABB18" stroke-width="0.25"/>
<path d="M14.2461 14.1304C14.8671 14.1305 15.3701 14.6343 15.3701 15.2554C15.3699 15.8763 14.867 16.3792 14.2461 16.3794H8.24805C7.62701 16.3794 7.12322 15.8764 7.12305 15.2554C7.12305 14.6342 7.6269 14.1304 8.24805 14.1304H14.2461Z" fill="#FABB18" stroke="#FABB18" stroke-width="0.25"/>
<path d="M12.3711 14.3801V22.6272H10.1221V14.3801H12.3711Z" fill="#FABB18" stroke="#FABB18" stroke-width="0.25"/>
</svg>
