<svg width="31" height="31" viewBox="0 0 31 31" fill="none" xmlns="http://www.w3.org/2000/svg">
<path d="M10.4287 18.3389C12.0246 18.3389 13.5551 18.9732 14.6836 20.1016C15.8122 21.2301 16.4463 22.7614 16.4463 24.3574C16.4462 25.9534 15.8121 27.4838 14.6836 28.6123C13.5551 29.7408 12.0247 30.375 10.4287 30.375H6.14258C4.54664 30.3749 3.0162 29.7408 1.8877 28.6123C0.759194 27.4838 0.125074 25.9534 0.125 24.3574C0.125 22.7614 0.759128 21.2301 1.8877 20.1016C3.01618 18.9732 4.54674 18.3389 6.14258 18.3389H10.4287ZM6.14258 20.7324C5.18137 20.7325 4.25981 21.1143 3.58008 21.7939C2.90026 22.4738 2.51758 23.396 2.51758 24.3574C2.51765 25.3187 2.90032 26.2402 3.58008 26.9199C4.25983 27.5997 5.18127 27.9823 6.14258 27.9824H10.4287C11.3901 27.9824 12.3124 27.5997 12.9922 26.9199C13.6717 26.2402 14.0536 25.3185 14.0537 24.3574C14.0537 23.3961 13.6719 22.4737 12.9922 21.7939C12.3124 21.1142 11.3901 20.7325 10.4287 20.7324H6.14258ZM7.32031 7.71973C8.27983 7.52887 9.27487 7.62757 10.1787 8.00195C11.0824 8.37633 11.855 9.00992 12.3984 9.82324C12.9419 10.6366 13.2324 11.593 13.2324 12.5713C13.2295 13.8822 12.7072 15.1395 11.7803 16.0664C10.8534 16.9932 9.59689 17.5146 8.28613 17.5176C7.30801 17.5176 6.35142 17.2279 5.53809 16.6846C4.72465 16.141 4.0902 15.3677 3.71582 14.4639C3.34158 13.5601 3.24374 12.5658 3.43457 11.6064C3.62541 10.647 4.09644 9.76595 4.78809 9.07422C5.47978 8.38253 6.36092 7.91063 7.32031 7.71973ZM8.28613 10.0176C7.78112 10.0176 7.2871 10.1677 6.86719 10.4482C6.4474 10.7287 6.12006 11.1274 5.92676 11.5938C5.73352 12.0603 5.68279 12.5741 5.78125 13.0693C5.87978 13.5647 6.12335 14.0198 6.48047 14.377C6.83748 14.7339 7.29197 14.9776 7.78711 15.0762C8.28238 15.1747 8.79615 15.1239 9.2627 14.9307C9.7293 14.7374 10.1286 14.4102 10.4092 13.9902C10.6898 13.5703 10.8389 13.0763 10.8389 12.5713C10.8388 12.236 10.7728 11.9035 10.6445 11.5938C10.5162 11.2842 10.3287 11.0026 10.0918 10.7656C9.85468 10.5285 9.57251 10.3402 9.2627 10.2119C8.9531 10.0837 8.62122 10.0176 8.28613 10.0176ZM17.8262 0.240234C18.9934 0.00811938 20.2033 0.127632 21.3027 0.583008C22.4024 1.03849 23.3427 1.81017 24.0039 2.7998C24.665 3.78929 25.0175 4.95258 25.0176 6.14258V6.14355C25.0146 7.7384 24.3797 9.26676 23.252 10.3945C22.1946 11.4518 20.7851 12.076 19.2988 12.1523L19 12.1611C17.8098 12.1611 16.6459 11.8077 15.6562 11.1465C14.6668 10.4852 13.8959 9.54482 13.4404 8.44531C12.9851 7.34578 12.8655 6.13598 13.0977 4.96875C13.3299 3.80142 13.9035 2.72929 14.7451 1.8877C15.5867 1.04616 16.6589 0.472422 17.8262 0.240234ZM19 2.51758C18.2831 2.51758 17.5824 2.73064 16.9863 3.12891C16.3902 3.52723 15.9257 4.09348 15.6514 4.75586C15.3771 5.41807 15.3046 6.1466 15.4443 6.84961C15.5842 7.55273 15.9296 8.19911 16.4365 8.70605C16.9435 9.21302 17.5898 9.55837 18.293 9.69824C18.9961 9.83807 19.7254 9.76653 20.3877 9.49219C21.0498 9.21788 21.6154 8.75303 22.0137 8.15723C22.412 7.5611 22.625 6.85954 22.625 6.14258C22.6249 5.18143 22.243 4.2598 21.5635 3.58008C20.8837 2.90026 19.9614 2.51758 19 2.51758Z" fill="#008EFF" stroke="#008EFF" stroke-width="0.25"/>
<path d="M22.2139 14.0537C24.3782 14.0537 26.4539 14.9139 27.9844 16.4443C29.5147 17.9748 30.375 20.0506 30.375 22.2148C30.3749 24.379 29.5147 26.455 27.9844 27.9854C26.454 29.5156 24.3781 30.375 22.2139 30.375H10.9639C10.6466 30.375 10.3425 30.2488 10.1182 30.0244C9.89383 29.8 9.76758 29.496 9.76758 29.1787C9.76758 28.8614 9.89383 28.5574 10.1182 28.333C10.3425 28.1087 10.6466 27.9825 10.9639 27.9824H22.2139C23.7436 27.9824 25.2113 27.3747 26.293 26.293C27.3744 25.2114 27.9813 23.7443 27.9814 22.2148C27.9814 20.6852 27.3746 19.2174 26.293 18.1357C25.2113 17.0541 23.7436 16.4463 22.2139 16.4463H15.7852C15.4679 16.4462 15.1638 16.32 14.9395 16.0957C14.7152 15.8713 14.5889 15.5672 14.5889 15.25C14.5889 14.9328 14.7152 14.6286 14.9395 14.4043C15.1638 14.18 15.4679 14.0538 15.7852 14.0537H22.2139Z" fill="#008EFF" stroke="#008EFF" stroke-width="0.25"/>
</svg>
