<svg width="27" height="31" viewBox="0 0 27 31" fill="none" xmlns="http://www.w3.org/2000/svg">
<path d="M9.08691 13.1731L9.21094 13.1809C9.2026 13.3165 9.2026 13.4526 9.21094 13.5881L9.21191 13.5959C9.21304 14.4297 9.48125 15.2415 9.97754 15.9114C10.4738 16.581 11.1718 17.0737 11.9688 17.3176L11.9707 17.3186C12.0947 17.358 12.2209 17.3902 12.3486 17.4153H12.3496C12.8512 17.515 13.3675 17.515 13.8691 17.4153L14.2891 17.3069C15.0787 17.056 15.7681 16.5609 16.2568 15.8918C16.7456 15.2225 17.0083 14.415 17.0068 13.5862V13.5774H17.0078C17.0154 13.4623 17.0154 13.3467 17.0078 13.2317L17.0068 13.2239V12.8723C16.852 12.1049 16.4733 11.4001 15.918 10.8479L15.915 10.8459C15.8462 10.774 15.7709 10.7083 15.6904 10.6497L15.6816 10.6428V10.6418C14.9684 10.0227 14.0539 9.68372 13.1094 9.68774H13.1084C12.2209 9.68409 11.3603 9.9912 10.6748 10.5549L10.667 10.5608C10.5653 10.6317 10.469 10.7108 10.3809 10.7981L10.3789 10.801C9.78021 11.3584 9.37175 12.0898 9.21191 12.8918V13.1809L9.08691 13.1731ZM19.168 13.0129C19.1802 13.2064 19.1806 13.4006 19.168 13.594C19.1654 14.9011 18.7474 16.1741 17.9736 17.2278C17.1983 18.2836 16.1061 19.0643 14.8564 19.4573C14.6611 19.5189 14.4562 19.5697 14.252 19.6106C13.8771 19.6931 13.4951 19.739 13.1113 19.7454H13.1094C12.7133 19.7453 12.3176 19.7071 11.9287 19.6321C11.8249 19.6121 11.7217 19.5893 11.6191 19.5637L11.3125 19.4778C10.0501 19.0927 8.94458 18.312 8.15918 17.2512C7.37551 16.1927 6.95178 14.9109 6.9502 13.594L6.94043 13.2786C6.94044 13.1738 6.94359 13.0687 6.9502 12.9641C6.95018 12.8581 6.95199 12.6868 7.01465 12.5198C7.23434 11.2611 7.83917 10.1016 8.74707 9.20239C8.91276 9.03463 9.09321 8.8819 9.28613 8.74634C10.3682 7.8758 11.7196 7.41056 13.1084 7.42798V7.427L13.1094 7.42798L13.1113 7.427L13.1104 7.42798C14.5164 7.42078 15.8811 7.90223 16.9697 8.79224H16.9688C17.1339 8.91231 17.2885 9.04609 17.4307 9.19263H17.4316C18.3331 10.0875 18.9385 11.2378 19.166 12.4875L19.168 12.4983V13.0129Z" fill="#45C646" stroke="#45C646" stroke-width="0.25"/>
<path d="M14.2402 18.4888V28.438L14.2354 28.5503C14.2254 28.6614 14.1993 28.7708 14.1572 28.8745C14.1011 29.0128 14.018 29.1385 13.9131 29.2446C13.8081 29.3507 13.6827 29.4352 13.5449 29.4927C13.407 29.5502 13.2588 29.5806 13.1094 29.5806C12.8095 29.5806 12.5216 29.4606 12.3096 29.2485C12.0978 29.0366 11.9786 28.7494 11.9785 28.4497V18.4888H14.2402Z" fill="#45C646" stroke="#45C646" stroke-width="0.25"/>
<path d="M17.1123 28.1138C17.7366 28.114 18.2422 28.6203 18.2422 29.2446C18.2421 29.8689 17.7365 30.3752 17.1123 30.3755H9.06641C8.44199 30.3755 7.93563 29.869 7.93555 29.2446C7.93555 28.6202 8.44194 28.1138 9.06641 28.1138H17.1123Z" fill="#45C646" stroke="#45C646" stroke-width="0.25"/>
<path d="M15.9883 0.125C16.3382 0.12973 16.6829 0.211194 16.998 0.363281C17.3124 0.515003 17.5894 0.733853 17.8105 1.00391L17.9658 1.20605C18.1097 1.4162 18.219 1.64854 18.2891 1.89453C18.3825 2.22255 18.4045 2.5672 18.3525 2.9043L17.1055 11.6016L17.0742 11.8213L16.9023 11.6807L15.5264 10.5557L15.2588 10.3594C14.6192 9.93104 13.8646 9.7002 13.0898 9.7002C12.2042 9.7002 11.3446 10.0022 10.6533 10.5557L9.27734 11.6807L9.10547 11.8213L9.07422 11.6016L7.82715 2.85254C7.77831 2.51268 7.8032 2.16622 7.90039 1.83691C7.99761 1.50762 8.16506 1.20319 8.39062 0.944336C8.61624 0.685482 8.89506 0.478229 9.20801 0.336914C9.52068 0.195747 9.86008 0.12417 10.2031 0.125977V0.125H15.9883ZM10.1445 2.38867C10.1264 2.39683 10.1097 2.40878 10.0967 2.42383L10.0947 2.42676C10.083 2.43965 10.0744 2.45495 10.0693 2.47168L10.0654 2.52344V2.52539L10.8281 7.86035C11.5491 7.58038 12.3155 7.43457 13.0898 7.43457C13.8639 7.43457 14.6299 7.5806 15.3506 7.86035L16.1143 2.51562V2.51172C16.1165 2.49803 16.116 2.48408 16.1123 2.4707L16.0928 2.43359C16.0799 2.41866 16.0639 2.40658 16.0459 2.39844C16.0279 2.39034 16.008 2.38654 15.9883 2.38672H15.9863L10.2031 2.37598H10.2021C10.1823 2.37573 10.1626 2.38056 10.1445 2.38867Z" fill="#45C646" stroke="#45C646" stroke-width="0.25"/>
<path d="M16.9336 11.105L24.9795 15.811L25.1943 15.9546C25.4005 16.1083 25.5816 16.2946 25.7295 16.5063C25.9266 16.7887 26.0607 17.1101 26.123 17.4487C26.1854 17.7875 26.1746 18.1361 26.0908 18.4702C26.007 18.8044 25.8525 19.1169 25.6377 19.3862L25.6367 19.3872L21.9551 23.8833L21.9541 23.8823C21.7384 24.1524 21.468 24.3734 21.1592 24.5288C20.8496 24.6845 20.5094 24.7718 20.1631 24.7837H20.0889C19.7592 24.783 19.4324 24.714 19.1309 24.5806C18.8298 24.4473 18.56 24.2524 18.3379 24.0093L12.6865 17.9761L12.5508 17.8306L12.7393 17.771L14.2686 17.2886L14.5605 17.1841C15.2292 16.9158 15.8124 16.4668 16.2432 15.8843C16.7355 15.2185 17.0029 14.4134 17.0068 13.5854V13.5776C17.0144 13.4625 17.0144 13.347 17.0068 13.2319H17.0059L16.7461 11.229L16.7139 10.9761L16.9336 11.105ZM19.0957 14.9868C18.9191 15.7457 18.6024 16.4652 18.1572 17.106C17.7078 17.7528 17.137 18.3048 16.4795 18.7368L19.9893 22.4712L19.9941 22.4771C20.0064 22.4917 20.0217 22.5034 20.0391 22.5112C20.0565 22.5191 20.0756 22.5225 20.0947 22.522H20.0967C20.1169 22.5215 20.1372 22.5173 20.1553 22.5083C20.1734 22.4992 20.1887 22.4852 20.2012 22.4692L20.2021 22.4683L23.8125 17.9526C23.8245 17.9364 23.8334 17.9177 23.8379 17.8979C23.8425 17.8774 23.8432 17.856 23.8389 17.8354L23.8369 17.8276C23.8343 17.809 23.8278 17.7906 23.8174 17.7749C23.8069 17.7591 23.7927 17.7455 23.7764 17.7358L19.0957 14.9868Z" fill="#45C646" stroke="#45C646" stroke-width="0.25"/>
<path d="M2.44336 17.7444C2.42686 17.7547 2.41313 17.7692 2.40234 17.7854C2.39156 17.8016 2.38398 17.8199 2.38086 17.8391L2.37988 17.8459C2.37592 17.8643 2.37656 17.8833 2.38086 17.9016L2.40527 17.9524L2.40625 17.9534L6.0166 22.4788L6.01758 22.4797C6.02949 22.495 6.04436 22.5078 6.06152 22.5168C6.07872 22.5259 6.0978 22.5313 6.11719 22.5325H6.11816C6.13448 22.5335 6.15093 22.531 6.16602 22.5247C6.18126 22.5182 6.1953 22.5079 6.20605 22.4954L6.20996 22.4905L9.72656 18.7571C9.06509 18.326 8.49065 17.7734 8.03809 17.1252C7.58512 16.4765 7.26365 15.7461 7.08691 14.9758L2.44336 17.7444ZM9.23438 13.8362C9.29317 14.5593 9.55306 15.2538 9.9873 15.8401C10.4837 16.5101 11.1821 17.0034 11.9795 17.2473L13.5186 17.72L13.71 17.7795L13.5723 17.925L7.90332 23.9543C7.68393 24.2107 7.41314 24.418 7.10742 24.5608C6.80161 24.7036 6.46836 24.7798 6.13086 24.7834H6.06543C5.71914 24.7716 5.37888 24.6852 5.06934 24.5295C4.76004 24.374 4.48834 24.1527 4.27246 23.8821L0.651367 19.3665C0.437444 19.0987 0.283574 18.7875 0.199219 18.4553C0.114939 18.1232 0.101881 17.777 0.162109 17.4397C0.222358 17.1023 0.354715 16.7817 0.548828 16.4993C0.742907 16.2169 0.994804 15.9791 1.28809 15.802L1.28906 15.801L9.28418 11.0344L9.50391 10.9036L9.47168 11.1575L9.2207 13.1604C9.21336 13.2792 9.21434 13.399 9.22168 13.5178V13.5256L9.23438 13.8362Z" fill="#45C646" stroke="#45C646" stroke-width="0.25"/>
</svg>
