<svg width="31" height="33" viewBox="0 0 31 33" fill="none" xmlns="http://www.w3.org/2000/svg">
<path fill-rule="evenodd" clip-rule="evenodd" d="M28.8568 9.84286L27.8854 8.15714C27.0636 6.73077 25.2423 6.23871 23.814 7.05714C23.1341 7.45766 22.3228 7.5713 21.559 7.37298C20.7952 7.17467 20.1417 6.6807 19.7425 6C19.4858 5.56734 19.3478 5.07453 19.3425 4.57143C19.3657 3.76482 19.0614 2.98319 18.4989 2.40458C17.9365 1.82597 17.1638 1.49967 16.3568 1.5H14.3997C13.6091 1.5 12.8512 1.81501 12.2935 2.37536C11.7358 2.9357 11.4245 3.69517 11.4283 4.48572C11.4048 6.11792 10.0749 7.42874 8.44255 7.42857C7.93945 7.42335 7.44664 7.28536 7.01398 7.02857C5.58565 6.21014 3.76438 6.7022 2.94255 8.12857L1.89969 9.84286C1.07885 11.2674 1.56422 13.0876 2.98541 13.9143C3.9092 14.4476 4.47828 15.4333 4.47828 16.5C4.47828 17.5667 3.9092 18.5524 2.98541 19.0857C1.56603 19.9069 1.08013 21.7226 1.89969 23.1429L2.88541 24.8429C3.27047 25.5377 3.91653 26.0504 4.68064 26.2675C5.44475 26.4847 6.26391 26.3884 6.95683 26C7.63802 25.6025 8.44976 25.4936 9.21163 25.6975C9.97349 25.9014 10.6223 26.4011 11.014 27.0857C11.2708 27.5184 11.4088 28.0112 11.414 28.5143C11.414 30.1633 12.7507 31.5 14.3997 31.5H16.3568C18.0002 31.5 19.3347 30.172 19.3425 28.5286C19.3387 27.7355 19.6521 26.9739 20.2128 26.4131C20.7736 25.8524 21.5352 25.539 22.3283 25.5429C22.8302 25.5563 23.3209 25.6937 23.7568 25.9429C25.1814 26.7637 27.0015 26.2783 27.8283 24.8571L28.8568 23.1429C29.255 22.4595 29.3642 21.6456 29.1605 20.8814C28.9567 20.1172 28.4567 19.4658 27.7711 19.0714C27.0856 18.677 26.5856 18.0256 26.3818 17.2614C26.178 16.4973 26.2873 15.6834 26.6854 15C26.9443 14.548 27.3191 14.1732 27.7711 13.9143C29.1838 13.088 29.668 11.2785 28.8568 9.85714V9.84286Z" stroke="#F23936" stroke-width="3" stroke-linecap="round" stroke-linejoin="round"/>
<path d="M15.385 20.6138C17.6572 20.6138 19.4991 18.7719 19.4991 16.4998C19.4991 14.2277 17.6572 12.3857 15.385 12.3857C13.1129 12.3857 11.271 14.2277 11.271 16.4998C11.271 18.7719 13.1129 20.6138 15.385 20.6138Z" stroke="#F23936" stroke-width="3" stroke-linecap="round" stroke-linejoin="round"/>
</svg>
