<svg width="27" height="31" viewBox="0 0 27 31" fill="none" xmlns="http://www.w3.org/2000/svg">
<path d="M18.3286 4.09253L22.0151 7.65601L22.2368 7.87085H18.8804C18.4878 7.87079 18.117 7.56621 18.1167 7.18921V3.88745L18.3286 4.09253Z" stroke="#4732BA" stroke-width="0.25"/>
<path d="M6.521 19.5327C5.94537 19.5327 5.47412 20.0049 5.47412 20.5806C5.47434 21.156 5.94551 21.6274 6.521 21.6274H19.7065C20.282 21.6274 20.7542 21.156 20.7544 20.5806C20.7544 20.0049 20.2822 19.5327 19.7065 19.5327H6.521ZM6.521 14.8442C5.94537 14.8442 5.47412 15.3165 5.47412 15.8921C5.4743 16.4676 5.94549 16.939 6.521 16.939H16.7769C17.3523 16.9389 17.8235 16.4675 17.8237 15.8921C17.8237 15.3165 17.3524 14.8443 16.7769 14.8442H6.521ZM6.4624 10.1558C5.88678 10.1558 5.41553 10.628 5.41553 11.2036C5.41568 11.7791 5.88687 12.2505 6.4624 12.2505H13.2603C13.8358 12.2505 14.307 11.7791 14.3071 11.2036C14.3071 10.628 13.8359 10.1558 13.2603 10.1558H6.4624ZM16.0229 7.18311C16.023 8.71668 17.2996 9.96422 18.8804 9.96436H23.7583V27.314C23.7583 27.6504 23.5263 28.0366 23.1001 28.0366H3.23291C3.03228 28.0366 2.84265 27.9474 2.70459 27.8179C2.56717 27.6888 2.46926 27.5083 2.46924 27.314V3.18018C2.46931 2.79596 2.8171 2.46931 3.20361 2.46924L15.8979 2.50439H16.0229V7.18311Z" stroke="#4732BA" stroke-width="0.25"/>
<path d="M16.6367 0.160156C17.2783 0.160342 17.9015 0.412897 18.3584 0.857422L25.4902 7.76172C25.8851 8.14414 26.1025 8.67522 26.1025 9.25195V27.3076C26.1025 28.9972 24.7602 30.3748 23.1006 30.375H3.2334C1.54863 30.375 0.125 28.9725 0.125 27.3135V3.18066C0.125 1.49315 1.50682 0.125 3.2041 0.125L16.6367 0.160156ZM3.20312 2.71875C2.94531 2.71908 2.71875 2.94393 2.71875 3.18066V27.3076C2.71875 27.4211 2.77691 27.5395 2.87598 27.6318C2.97479 27.7239 3.10518 27.7812 3.2334 27.7812H23.1006C23.3423 27.781 23.5088 27.5571 23.5088 27.3076V10.2148H18.8809C17.1679 10.2148 15.7725 8.85447 15.7725 7.18262V2.75293L3.20312 2.71875ZM18.3672 7.18262C18.3672 7.39809 18.5947 7.62012 18.8809 7.62012H21.6172L18.3672 4.47656V7.18262Z" fill="#4732BA" stroke="#4732BA" stroke-width="0.25"/>
<path d="M19.707 19.283C20.4206 19.283 21.0038 19.8662 21.0039 20.5798C21.0039 21.2935 20.4207 21.8766 19.707 21.8767H6.52051C5.80692 21.8766 5.22363 21.2934 5.22363 20.5798C5.22369 19.8663 5.80696 19.2831 6.52051 19.283H19.707ZM16.7764 14.5945C17.49 14.5945 18.0741 15.1777 18.0742 15.8914C18.0742 16.6051 17.4901 17.1882 16.7764 17.1882H6.52051C5.80692 17.1881 5.22363 16.605 5.22363 15.8914C5.22372 15.1778 5.80698 14.5946 6.52051 14.5945H16.7764ZM13.2607 9.90601C13.9742 9.90622 14.5575 10.4894 14.5576 11.2029C14.5576 11.9164 13.9743 12.4995 13.2607 12.4998H6.46191C5.74833 12.4996 5.16504 11.9165 5.16504 11.2029C5.16516 10.4894 5.7484 9.90613 6.46191 9.90601H13.2607Z" fill="#4732BA" stroke="#4732BA" stroke-width="0.25"/>
</svg>
