<svg width="158" height="37" viewBox="0 0 158 37" fill="none" xmlns="http://www.w3.org/2000/svg">
<path d="M18.9061 27.968C18.1701 29.1027 17.8021 29.8387 17.8021 30.176C17.8021 30.544 17.9401 30.7894 18.2161 30.912C18.2161 30.9734 17.9554 31.1574 17.4341 31.464C16.9434 31.8014 16.2534 31.97 15.3641 31.97C14.4747 31.97 14.0301 31.74 14.0301 31.28C14.0301 30.4827 15.5327 27.8454 18.5381 23.368C21.5741 18.86 23.5674 15.7474 24.5181 14.03C26.6034 10.2887 27.6461 7.32935 27.6461 5.15202C27.6461 4.29335 27.4774 3.49602 27.1401 2.76002C26.6187 1.65602 25.3614 1.10402 23.3681 1.10402C19.7187 1.10402 15.8394 2.77535 11.7301 6.11802C8.60206 8.69402 6.19473 11.362 4.50806 14.122C2.97473 16.7287 2.20806 19.0594 2.20806 21.114C2.20806 24.058 3.57273 25.5607 6.30206 25.622C6.42473 25.622 6.5474 25.622 6.67006 25.622C10.2887 25.622 13.0334 24.3494 14.9041 21.804C15.6401 20.792 16.0081 19.9334 16.0081 19.228C16.0081 18.5227 15.8394 18.078 15.5021 17.894C15.4714 17.8634 15.4561 17.802 15.4561 17.71C15.4561 17.618 15.5481 17.572 15.7321 17.572C16.5294 17.572 16.9281 18.0934 16.9281 19.136C16.9281 19.78 16.6214 20.654 16.0081 21.758C15.3947 22.862 14.2754 23.9047 12.6501 24.886C11.0554 25.8674 9.23073 26.358 7.17606 26.358C5.1214 26.358 3.49606 25.76 2.30006 24.564C1.10406 23.368 0.506063 21.758 0.506063 19.734C0.506063 14.95 3.7874 9.92069 10.3501 4.64602C12.0061 3.32735 14.1527 2.22335 16.7901 1.33402C19.4581 0.444686 21.8654 1.93119e-05 24.0121 1.93119e-05C26.1894 1.93119e-05 27.7227 0.414019 28.6121 1.24202C29.5014 2.03935 29.9461 3.15868 29.9461 4.60002C29.9461 8.09602 27.8301 13.0487 23.5981 19.458C24.5487 18.262 26.0974 16.744 28.2441 14.904C35.8801 8.49469 42.4427 4.27802 47.9321 2.25402C48.2081 2.13135 48.5147 2.07002 48.8521 2.07002C50.0174 2.07002 50.7534 2.72935 51.0601 4.04802C51.2134 4.56935 50.4774 5.65802 48.8521 7.31402C45.0187 11.2394 41.7681 15.5327 39.1001 20.194C36.4321 24.8554 35.0981 28.198 35.0981 30.222C35.0981 30.7127 35.1901 31.05 35.3741 31.234C35.5581 31.4487 35.8494 31.51 36.2481 31.418C36.6467 31.3567 37.4747 31.05 38.7321 30.498C40.0201 29.946 40.8634 29.624 41.2621 29.532C41.4154 29.5934 41.4921 29.67 41.4921 29.762C41.4921 30.222 40.6794 30.866 39.0541 31.694C37.4594 32.522 36.2634 32.936 35.4661 32.936C34.6687 32.936 34.1627 32.798 33.9481 32.522C33.3961 31.7554 33.1201 30.7894 33.1201 29.624C33.1201 26.9867 34.5307 23.1994 37.3521 18.262C39.1614 15.1647 41.9521 10.994 45.7241 5.75002C41.6454 6.11802 36.3707 9.33802 29.9001 15.41C24.7481 20.286 21.0834 24.472 18.9061 27.968ZM58.2731 14.766L58.9171 14.628C59.2544 14.628 59.5764 14.766 59.8831 15.042C60.1897 15.318 60.3431 15.5327 60.3431 15.686C60.3431 15.8394 59.3924 17.3267 57.4911 20.148C55.5897 22.9387 54.6391 24.886 54.6391 25.99C54.6391 26.082 54.6544 26.174 54.6851 26.266C54.8384 26.9714 55.1757 27.324 55.6971 27.324C57.2917 27.324 60.2051 24.6867 64.4371 19.412C64.5291 19.2894 64.6364 19.228 64.7591 19.228C64.8817 19.228 64.9431 19.3507 64.9431 19.596C64.9431 19.8107 64.8051 20.102 64.5291 20.47C60.6037 25.714 57.6137 28.336 55.5591 28.336C55.2831 28.336 55.0224 28.29 54.7771 28.198C53.4277 27.6767 52.7531 26.6647 52.7531 25.162C52.7531 24.6407 52.8144 24.1194 52.9371 23.598L50.0851 26.358C48.2757 27.9527 46.9571 28.75 46.1291 28.75C45.3317 28.75 44.5651 28.4894 43.8291 27.968C43.0011 27.3547 42.5871 26.542 42.5871 25.53C42.5871 23.2914 44.1511 20.6234 47.2791 17.526C50.4071 14.398 53.2744 12.834 55.8811 12.834C56.8931 12.834 57.5677 13.1867 57.9051 13.892C57.9971 14.1374 58.0737 14.352 58.1351 14.536C58.1964 14.6894 58.2424 14.766 58.2731 14.766ZM44.5191 26.082C44.5191 27.186 44.9024 27.738 45.6691 27.738C47.4477 27.738 49.8704 25.7907 52.9371 21.896L57.8131 15.18C57.5677 14.7507 57.1691 14.536 56.6171 14.536C54.7464 14.536 52.2624 15.9927 49.1651 18.906C46.0677 21.7887 44.5191 24.1807 44.5191 26.082ZM73.9181 13.708L80.5421 13.616C80.6341 13.6774 80.6801 13.7234 80.6801 13.754C80.6801 14.03 78.7634 14.4134 74.9301 14.904C71.1274 15.3947 69.0728 15.686 68.7661 15.778C68.1834 16.2994 67.1101 17.8634 65.5461 20.47C63.9821 23.046 63.2001 24.932 63.2001 26.128C63.2001 27.2627 63.9821 27.83 65.5461 27.83C66.2821 27.83 67.2481 27.6 68.4441 27.14C69.6401 26.68 70.5601 26.2507 71.2041 25.852C72.9214 24.7787 74.7614 23.1994 76.7241 21.114C77.1534 20.6847 77.4448 20.47 77.5981 20.47C77.6901 20.47 77.7361 20.562 77.7361 20.746C77.7361 20.93 77.5061 21.298 77.0461 21.85C75.4514 23.8127 73.6574 25.392 71.6641 26.588C69.2721 28.06 66.9874 28.796 64.8101 28.796C63.8594 28.796 63.0774 28.5967 62.4641 28.198C61.8814 27.7687 61.5901 26.9254 61.5901 25.668C61.5901 24.4107 62.1421 22.6934 63.2461 20.516C64.3501 18.308 65.1934 16.6674 65.7761 15.594C65.3468 15.686 64.9788 15.732 64.6721 15.732C63.7828 15.732 63.3381 15.3794 63.3381 14.674C63.3381 14.1527 63.7061 13.7847 64.4421 13.57C64.5341 13.57 64.6721 13.5547 64.8561 13.524H67.5241C68.0761 12.8187 68.7048 12.006 69.4101 11.086C70.2688 9.98202 70.8514 9.43002 71.1581 9.43002C71.4648 9.43002 71.8481 9.55269 72.3081 9.79802C72.7681 10.0434 72.9981 10.3347 72.9981 10.672C72.9981 11.0094 72.2621 12.006 70.7901 13.662C71.5874 13.6927 72.6301 13.708 73.9181 13.708ZM84.9524 28.75C82.6524 28.75 81.5024 27.4774 81.5024 24.932C81.5024 23.644 81.8397 22.2334 82.5144 20.7C83.189 19.1667 83.925 17.8787 84.7224 16.836C84.569 16.8667 84.3697 16.882 84.1244 16.882C83.3884 16.882 82.775 16.3607 82.2844 15.318L78.8804 19.734C76.979 22.0954 75.875 23.276 75.5684 23.276C75.415 23.276 75.3384 23.2147 75.3384 23.092C75.3384 22.7854 75.599 22.3407 76.1204 21.758C78.7884 18.6607 80.6744 16.0387 81.7784 13.892C82.4837 11.224 83.373 9.89002 84.4464 9.89002C85.1517 9.89002 85.5044 10.1967 85.5044 10.81C85.5044 11.4234 85.121 12.2054 84.3544 13.156L83.2504 14.628C83.2504 15.272 83.7257 15.594 84.6764 15.594C85.2284 15.594 85.8417 15.3947 86.5164 14.996L87.7124 14.26C87.7737 14.2294 87.927 14.214 88.1724 14.214C88.4177 14.214 88.6784 14.3674 88.9544 14.674C89.2304 14.9807 89.3224 15.2567 89.2304 15.502L86.0564 19.504C84.0937 22.0187 83.1124 24.012 83.1124 25.484C83.1124 26.9254 83.787 27.646 85.1364 27.646C86.547 27.646 88.2797 26.8947 90.3344 25.392C91.561 24.5027 92.6804 23.506 93.6924 22.402C94.643 21.298 95.1644 20.746 95.2564 20.746C95.471 20.746 95.5784 20.8687 95.5784 21.114C95.5784 21.3287 95.4404 21.5894 95.1644 21.896L93.6924 23.552C92.8644 24.4107 91.9444 25.2387 90.9324 26.036C88.5097 27.8454 86.5164 28.75 84.9524 28.75ZM105.678 18.768C105.678 19.8414 104.651 21.6354 102.596 24.15C100.173 27.1247 98.1032 28.612 96.3859 28.612H95.6499C94.8525 28.612 94.2239 28.198 93.7639 27.37C93.3959 26.7874 93.2119 26.1434 93.2119 25.438C93.2119 23.598 94.5459 21.022 97.2139 17.71C99.9125 14.3674 102.09 12.696 103.746 12.696C105.31 12.696 106.092 13.524 106.092 15.18C106.092 15.6094 106.015 16.1614 105.862 16.836C105.893 16.928 106.184 16.974 106.736 16.974C107.288 16.974 108.131 16.6827 109.266 16.1C109.235 16.6214 108.024 17.3727 105.632 18.354C105.663 18.4767 105.678 18.6147 105.678 18.768ZM102.688 16.376C101.645 16.376 100.158 17.6027 98.2259 20.056C96.3245 22.5094 95.3739 24.3187 95.3739 25.484C95.3739 26.6494 95.7419 27.232 96.4779 27.232C97.7965 27.232 99.4679 26.036 101.492 23.644C103.516 21.252 104.528 19.5347 104.528 18.492C104.037 18.216 103.424 17.5107 102.688 16.376ZM128.597 27.968C126.512 27.968 125.469 27.002 125.469 25.07C125.469 23.966 125.96 22.4634 126.941 20.562C127.923 18.63 128.95 17.0047 130.023 15.686C128.122 16.606 125.929 18.2774 123.445 20.7C120.961 23.092 119.229 25.6067 118.247 28.244C118.094 28.4894 117.833 28.612 117.465 28.612C116.729 28.612 116.361 28.198 116.361 27.37C116.668 25.6834 117.358 23.7514 118.431 21.574C118.769 20.8687 119.765 18.814 121.421 15.41C119.029 16.974 116.99 18.6607 115.303 20.47C113.647 22.2487 112.099 24.0427 110.657 25.852C109.247 27.6614 108.449 28.566 108.265 28.566C107.867 28.566 107.514 28.382 107.207 28.014C106.931 27.646 106.793 27.278 106.793 26.91C106.793 26.358 107.591 24.334 109.185 20.838L106.425 23.736C105.751 24.4107 105.337 24.748 105.183 24.748C104.999 24.748 104.907 24.656 104.907 24.472C104.907 24.2574 105.03 24.0274 105.275 23.782C106.41 22.6474 107.422 21.5127 108.311 20.378C109.201 19.2434 110.673 17.2194 112.727 14.306C113.065 13.846 113.54 13.616 114.153 13.616C114.767 13.616 115.073 13.9074 115.073 14.49C115.073 14.7047 114.261 16.2074 112.635 18.998C111.01 21.758 110.105 23.4907 109.921 24.196C111.179 22.816 113.065 20.9607 115.579 18.63C119.351 15.134 121.835 13.386 123.031 13.386C123.399 13.386 123.737 13.4934 124.043 13.708C124.35 13.9227 124.503 14.168 124.503 14.444C124.503 14.6894 123.905 15.8394 122.709 17.894C121.544 20.01 120.9 21.2674 120.777 21.666C124.181 18.814 125.883 17.3727 125.883 17.342C128.766 15.1034 130.836 13.984 132.093 13.984C132.461 13.984 132.799 14.1067 133.105 14.352C133.443 14.5667 133.611 14.8274 133.611 15.134C133.611 15.1954 132.615 16.4987 130.621 19.044C128.628 21.5587 127.509 23.6287 127.263 25.254C127.202 25.806 127.309 26.22 127.585 26.496C127.861 26.772 128.352 26.91 129.057 26.91C129.793 26.91 130.851 26.4194 132.231 25.438C133.642 24.426 135.068 23.0767 136.509 21.39C137.061 20.7767 137.429 20.47 137.613 20.47C137.828 20.47 137.935 20.5467 137.935 20.7C137.935 20.9147 137.797 21.16 137.521 21.436C136.019 23.2454 134.393 24.794 132.645 26.082C130.928 27.3394 129.579 27.968 128.597 27.968ZM150.947 14.766L151.591 14.628C151.928 14.628 152.25 14.766 152.557 15.042C152.864 15.318 153.017 15.5327 153.017 15.686C153.017 15.8394 152.066 17.3267 150.165 20.148C148.264 22.9387 147.313 24.886 147.313 25.99C147.313 26.082 147.328 26.174 147.359 26.266C147.512 26.9714 147.85 27.324 148.371 27.324C149.966 27.324 152.879 24.6867 157.111 19.412C157.203 19.2894 157.31 19.228 157.433 19.228C157.556 19.228 157.617 19.3507 157.617 19.596C157.617 19.8107 157.479 20.102 157.203 20.47C153.278 25.714 150.288 28.336 148.233 28.336C147.957 28.336 147.696 28.29 147.451 28.198C146.102 27.6767 145.427 26.6647 145.427 25.162C145.427 24.6407 145.488 24.1194 145.611 23.598L142.759 26.358C140.95 27.9527 139.631 28.75 138.803 28.75C138.006 28.75 137.239 28.4894 136.503 27.968C135.675 27.3547 135.261 26.542 135.261 25.53C135.261 23.2914 136.825 20.6234 139.953 17.526C143.081 14.398 145.948 12.834 148.555 12.834C149.567 12.834 150.242 13.1867 150.579 13.892C150.671 14.1374 150.748 14.352 150.809 14.536C150.87 14.6894 150.916 14.766 150.947 14.766ZM137.193 26.082C137.193 27.186 137.576 27.738 138.343 27.738C140.122 27.738 142.544 25.7907 145.611 21.896L150.487 15.18C150.242 14.7507 149.843 14.536 149.291 14.536C147.42 14.536 144.936 15.9927 141.839 18.906C138.742 21.7887 137.193 24.1807 137.193 26.082Z" fill="#E4E4E7"/>
</svg>
