<svg width="165" height="37" viewBox="0 0 165 37" fill="none" xmlns="http://www.w3.org/2000/svg">
<path d="M31.6372 13.8624L31.6151 13.8403C31.6133 13.839 31.6118 13.8374 31.6109 13.8355L17.7758 0L3.94085 13.8351C3.93926 13.8367 3.93837 13.8389 3.93676 13.8399L3.91393 13.862C1.79837 15.9895 0.454625 18.763 0.0963089 21.7419C-0.262007 24.7207 0.38567 27.7338 1.93637 30.3023C3.48708 32.8708 5.85183 34.8473 8.6547 35.9174C11.4576 36.9874 14.5377 37.09 17.4055 36.2084C17.6468 36.1346 17.9047 36.1346 18.1461 36.2084C21.0136 37.0896 24.0936 36.9871 26.8963 35.9168C29.699 34.8466 32.0634 32.8703 33.614 30.302C35.1647 27.7337 35.8124 24.7207 35.4542 21.742C35.0961 18.7634 33.7525 15.9898 31.6372 13.8624ZM8.86039 22.9857C8.79304 23.0531 8.73963 23.1331 8.70321 23.221C8.66676 23.3089 8.64801 23.4032 8.64802 23.4984C8.67264 25.9403 9.36273 28.3291 10.644 30.4079C10.6731 30.4551 10.6866 30.5103 10.6824 30.5655C10.6783 30.6207 10.6568 30.6732 10.621 30.7155C10.5852 30.7579 10.537 30.7877 10.4832 30.8009C10.4294 30.8141 10.3728 30.81 10.3215 30.7891C9.35823 30.384 8.48317 29.795 7.74524 29.0552C6.23298 27.5427 5.3828 25.4917 5.38143 23.3528C5.38005 21.214 6.2276 19.1619 7.73794 17.6475L17.7758 7.61057L27.8132 17.6475C29.3238 19.1617 30.1716 21.2138 30.1702 23.3528C30.169 25.4917 29.3186 27.5427 27.8063 29.0552C27.0683 29.795 26.1933 30.384 25.2302 30.7891C25.1788 30.81 25.1222 30.8141 25.0684 30.8009C25.0146 30.7877 24.9664 30.7577 24.9305 30.7155C24.8948 30.6732 24.8731 30.6207 24.869 30.5653C24.8649 30.5101 24.8783 30.4549 24.9074 30.4077C26.189 28.3291 26.8795 25.9403 26.9045 23.4984C26.9045 23.4032 26.8855 23.3089 26.8489 23.2208C26.8123 23.1328 26.7587 23.0529 26.6912 22.9856L21.9434 17.9497C21.8961 17.9102 21.8366 17.8886 21.775 17.8886C21.7135 17.8886 21.6539 17.9102 21.6067 17.9497C21.5594 17.989 21.5276 18.0438 21.5165 18.1044C21.5054 18.1649 21.5159 18.2273 21.5463 18.2809C23.3902 21.6177 21.8046 26.4106 19.1604 29.0552L19.1464 29.0692C18.7815 29.4302 18.2888 29.6326 17.7755 29.6324C17.2621 29.6323 16.7695 29.4295 16.4048 29.0683L16.392 29.0552C13.7468 26.4106 12.162 21.6182 14.0062 18.2816C14.0365 18.228 14.0471 18.1656 14.0361 18.1051C14.025 18.0445 13.9931 17.9897 13.9459 17.9504C13.8986 17.9109 13.839 17.8893 13.7775 17.8893C13.7159 17.8893 13.6563 17.9109 13.6091 17.9504L8.86039 22.9857Z" fill="#E4E4E7"/>
<path d="M65.6736 11.5546H70.2526L65.503 27.4243H60.27L58.0516 18.039L55.8048 27.4243H50.5718L45.8223 11.5546H50.6856L53.1599 22.7032L55.6058 11.5546H60.7535L63.1993 22.7032L65.6736 11.5546Z" fill="#E4E4E7"/>
<path d="M82.1466 22.3904C82.8482 21.7078 83.1989 20.7408 83.1989 19.4894C83.1989 18.2381 82.8482 17.2806 82.1466 16.617C81.4451 15.9344 80.6393 15.5931 79.7292 15.5931C78.8191 15.5931 78.0133 15.9344 77.3118 16.617C76.6102 17.2995 76.2595 18.2665 76.2595 19.5179C76.2595 20.7693 76.6102 21.7362 77.3118 22.4188C78.0133 23.0824 78.8191 23.4142 79.7292 23.4142C80.6393 23.4142 81.4451 23.0729 82.1466 22.3904ZM73.4154 25.3482C72.0124 23.8313 71.3108 21.8879 71.3108 19.5179C71.3108 17.1479 72.0124 15.2044 73.4154 13.6876C74.8185 12.1518 76.5249 11.3839 78.5347 11.3839C80.5634 11.3839 82.1182 12.1329 83.1989 13.6307V11.5546H88.0622V27.4243H83.1989V25.1206C82.0234 26.7891 80.4497 27.6234 78.4778 27.6234C76.506 27.6234 74.8185 26.865 73.4154 25.3482Z" fill="#E4E4E7"/>
<path d="M90.3159 11.5546H95.4921L99.104 23.3573L102.716 11.5546H107.892L102.261 27.4243H95.9471L90.3159 11.5546Z" fill="#E4E4E7"/>
<path d="M116.879 27.6234C114.565 27.6234 112.669 26.8839 111.19 25.405C109.712 23.9072 108.972 21.9258 108.972 19.461C108.972 16.9962 109.702 15.0338 111.162 13.5738C112.641 12.1139 114.546 11.3839 116.879 11.3839C119.211 11.3839 121.145 12.1044 122.68 13.5454C124.216 14.9864 124.984 16.9867 124.984 19.5463C124.984 20.0962 124.946 20.6081 124.87 21.0821H113.949C114.044 21.7836 114.357 22.3619 114.888 22.817C115.419 23.2531 115.987 23.4711 116.594 23.4711C117.22 23.4711 117.684 23.4142 117.988 23.3005C118.291 23.1677 118.509 23.0445 118.642 22.9307C118.794 22.798 118.983 22.5894 119.211 22.305H124.472C124.017 23.8977 123.107 25.187 121.742 26.1729C120.377 27.1399 118.756 27.6234 116.879 27.6234ZM119.922 18.039C119.846 17.2995 119.524 16.7023 118.955 16.2472C118.386 15.7732 117.713 15.5362 116.935 15.5362C116.158 15.5362 115.504 15.7732 114.973 16.2472C114.442 16.7023 114.11 17.2995 113.978 18.039H119.922Z" fill="#E4E4E7"/>
<path d="M132.971 11.5546V14.5124C134.109 12.4268 135.626 11.3839 137.522 11.3839V16.3326H136.327C135.208 16.3326 134.365 16.598 133.796 17.1289C133.246 17.6598 132.971 18.5888 132.971 19.9161V27.4243H128.108V11.5546H132.971Z" fill="#E4E4E7"/>
<path d="M144.598 9.76284C144.049 10.3127 143.375 10.5876 142.579 10.5876C141.783 10.5876 141.11 10.3127 140.56 9.76284C140.01 9.21299 139.735 8.5399 139.735 7.74357C139.735 6.92828 140.01 6.24571 140.56 5.69586C141.11 5.14602 141.783 4.87109 142.579 4.87109C143.375 4.87109 144.049 5.14602 144.598 5.69586C145.148 6.24571 145.423 6.92828 145.423 7.74357C145.423 8.5399 145.148 9.21299 144.598 9.76284ZM140.162 27.4243V11.5546H145.025V27.4243H140.162Z" fill="#E4E4E7"/>
<path d="M158.827 22.4472C159.471 21.7647 159.794 20.7787 159.794 19.4894C159.794 18.2002 159.462 17.2237 158.798 16.5601C158.135 15.8775 157.348 15.5362 156.438 15.5362C155.528 15.5362 154.741 15.8775 154.077 16.5601C153.433 17.2237 153.11 18.2002 153.11 19.4894C153.11 20.7787 153.442 21.7647 154.106 22.4472C154.788 23.1298 155.585 23.4711 156.495 23.4711C157.405 23.4711 158.182 23.1298 158.827 22.4472ZM150.551 25.3766C148.958 23.8787 148.162 21.9069 148.162 19.461C148.162 17.0151 148.958 15.0622 150.551 13.6023C152.143 12.1234 154.115 11.3839 156.466 11.3839C158.817 11.3839 160.78 12.1234 162.353 13.6023C163.946 15.0622 164.742 17.0151 164.742 19.461C164.742 21.9069 163.956 23.8787 162.382 25.3766C160.808 26.8745 158.846 27.6234 156.495 27.6234C154.144 27.6234 152.162 26.8745 150.551 25.3766Z" fill="#E4E4E7"/>
</svg>
