<svg width="162" height="32" viewBox="0 0 162 32" fill="none" xmlns="http://www.w3.org/2000/svg">
<path d="M31.4723 25.6303C31.2157 25.222 30.8803 24.8688 30.4857 24.5915C30.0911 24.3143 29.6452 24.1185 29.174 24.0155C27.3713 23.5963 25.8079 22.4805 24.8254 20.9121C23.8428 19.3436 23.5211 17.45 23.9304 15.6451C24.0877 14.9475 24.0355 14.2189 23.7801 13.5509C23.5248 12.8829 23.0778 12.3052 22.4952 11.8904C21.9126 11.4757 21.2204 11.2423 20.5056 11.2196C19.7908 11.1969 19.0853 11.3859 18.4776 11.7629C17.8699 12.14 17.3871 12.6881 17.0899 13.3385C16.7927 13.9891 16.6943 14.7128 16.8072 15.419C16.92 16.1252 17.2389 16.7823 17.724 17.3079C18.209 17.8334 18.8386 18.2039 19.5335 18.3727C20.4325 18.5755 21.2826 18.9537 22.0352 19.4857C22.7877 20.0177 23.4279 20.693 23.919 21.4728C24.41 22.2527 24.7423 23.1218 24.8969 24.0304C25.0514 24.9389 25.0251 25.869 24.8195 26.7674C24.6977 27.3465 24.7194 27.9466 24.8827 28.5154C25.0461 29.0842 25.346 29.6044 25.7565 30.0308C26.1669 30.4571 26.6754 30.7766 27.2376 30.9614C27.7998 31.1461 28.3986 31.1906 28.9819 31.0909C29.5653 30.9912 30.1154 30.7504 30.5843 30.3894C31.0532 30.0283 31.4267 29.5582 31.6723 29.0197C31.9178 28.4813 32.028 27.891 31.9932 27.3002C31.9583 26.7094 31.7795 26.1361 31.4723 25.6303Z" fill="#E4E4E7"/>
<path d="M9.16057 21.6021C9.7954 21.9485 10.5192 22.0974 11.2392 22.0296C11.9592 21.9618 12.6425 21.6804 13.2014 21.2215C13.7604 20.7626 14.1695 20.1472 14.3762 19.4543C14.583 18.7613 14.578 18.0223 14.3618 17.3322C14.0879 16.4522 13.9903 15.5268 14.0747 14.6091C14.1591 13.6913 14.4237 12.7992 14.8536 11.9839C15.2834 11.1687 15.8699 10.4463 16.5795 9.85811C17.2891 9.26994 18.1077 8.82767 18.9886 8.55655C19.6718 8.34257 20.2763 7.93127 20.7263 7.37448C21.1763 6.81769 21.4515 6.14025 21.5173 5.42738C21.5831 4.71452 21.4367 3.9981 21.0963 3.36834C20.7559 2.73853 20.2369 2.22347 19.6045 1.88799C18.9721 1.55251 18.2546 1.41155 17.5423 1.48292C16.83 1.55425 16.1546 1.83466 15.6013 2.28893C15.048 2.74315 14.6414 3.35092 14.4327 4.0357C14.224 4.72047 14.2225 5.45169 14.4284 6.13731C14.9689 7.90736 14.7861 9.81949 13.9201 11.4551C13.0541 13.0907 11.5754 14.3167 9.80771 14.8646C9.10987 15.067 8.48882 15.4741 8.02499 16.0335C7.56117 16.5928 7.27591 17.2785 7.20618 18.0017C7.1365 18.7249 7.28551 19.4525 7.63397 20.09C7.98242 20.7277 8.51424 21.246 9.16057 21.5779V21.6021Z" fill="#E4E4E7"/>
<path d="M18.4992 21.009C18.0167 21.0259 17.5425 21.139 17.1043 21.3415C16.666 21.544 16.2726 21.8319 15.9469 22.1884C14.6837 23.5395 12.9369 24.3355 11.0885 24.4024C9.23999 24.4693 7.44021 23.8015 6.08266 22.5452C5.73189 22.2161 5.31922 21.96 4.8686 21.7918C4.41802 21.6235 3.93846 21.5466 3.45784 21.5654C2.86626 21.5933 2.29045 21.7656 1.78076 22.0672C1.27103 22.3689 0.842943 22.7906 0.533773 23.2957C0.224559 23.8009 0.0437316 24.374 0.00697966 24.9651C-0.0297279 25.5563 0.0787508 26.1474 0.323038 26.6869C0.567326 27.2264 0.939911 27.698 1.40835 28.0604C1.8768 28.4228 2.42679 28.665 3.01038 28.7659C3.59396 28.8668 4.19342 28.8234 4.75634 28.6394C5.31931 28.4554 5.82864 28.1364 6.23989 27.7102C6.86551 27.0328 7.6186 26.4856 8.45603 26.0997C9.2935 25.7139 10.1988 25.497 11.1202 25.4617C12.0416 25.4263 12.9609 25.573 13.8255 25.8934C14.6901 26.2139 15.4829 26.7018 16.1587 27.3292C16.5986 27.7267 17.1292 28.0103 17.7041 28.1553C18.279 28.3003 18.8806 28.3022 19.4564 28.1609C20.0322 28.0195 20.5646 27.7393 21.007 27.3446C21.4495 26.95 21.7885 26.4529 21.9944 25.8969C22.2003 25.3409 22.2668 24.7429 22.1882 24.1553C22.1095 23.5676 21.8881 23.0082 21.5432 22.5259C21.1983 22.0436 20.7406 21.6532 20.21 21.3888C19.6793 21.1244 19.0919 20.9939 18.4992 21.009Z" fill="#E4E4E7"/>
<path d="M56.6367 25.8652C58.5853 25.8652 59.7998 25.1579 60.2803 23.7432C60.4404 23.2093 60.5605 22.5286 60.6406 21.7012L59.5996 21.6611C59.4395 23.5029 58.9723 24.4372 58.1982 24.4639C57.611 24.4105 57.3174 23.7432 57.3174 22.4619V14.0938C57.3174 10.7572 55.7692 8.70182 52.6729 7.92773C51.8721 7.74089 51.0046 7.64746 50.0703 7.64746C46.4401 7.64746 44.1579 8.4349 43.2236 10.0098C42.9834 10.4102 42.8633 10.8372 42.8633 11.291C42.8633 12.332 43.3571 12.986 44.3447 13.2529C44.585 13.333 44.8385 13.373 45.1055 13.373C46.2533 13.373 47.0273 12.8125 47.4277 11.6914C47.4811 11.5312 47.5612 11.2643 47.668 10.8906C47.9616 9.82292 48.3353 9.1556 48.7891 8.88867C49.0827 8.75521 49.4163 8.68848 49.79 8.68848C51.0446 8.68848 51.8053 9.44922 52.0723 10.9707C52.179 11.5312 52.2324 12.1986 52.2324 12.9727V15.5752C45.3724 15.7087 41.929 17.5238 41.9023 21.0205C41.9023 23.3962 42.9434 24.9176 45.0254 25.585C45.6393 25.7718 46.32 25.8652 47.0674 25.8652C49.3363 25.8652 51.0046 25.0111 52.0723 23.3027C52.2858 22.9557 52.4593 22.5954 52.5928 22.2217C53.1533 24.5173 54.5013 25.7318 56.6367 25.8652ZM49.1494 24.1436C47.8148 24.0902 47.1341 22.9023 47.1074 20.5801C47.1074 18.8184 47.8281 17.6706 49.2695 17.1367C50.0436 16.8965 51.0312 16.7497 52.2324 16.6963V20.5801C51.7253 22.4486 50.9111 23.5964 49.79 24.0234C49.5498 24.1035 49.3363 24.1436 49.1494 24.1436Z" fill="#E4E4E7"/>
<path d="M72.0117 24.4238H69.0488V15.7754C69.2357 12.9727 69.9163 11.2643 71.0908 10.6504C71.2777 10.5703 71.4512 10.5303 71.6113 10.5303C71.9049 10.5303 72.2253 10.8372 72.5723 11.4512C73.0527 12.3053 73.5732 12.8392 74.1338 13.0527C74.4007 13.1328 74.6943 13.1729 75.0146 13.1729C76.0824 13.1729 76.8431 12.6657 77.2969 11.6514C77.457 11.3044 77.5371 10.944 77.5371 10.5703C77.5371 9.23568 76.8831 8.39486 75.5752 8.04785C75.2549 7.96777 74.9212 7.92773 74.5742 7.92773C72.9193 7.92773 71.4645 8.58171 70.21 9.88965C69.6494 10.5303 69.2223 11.2243 68.9287 11.9717L68.6484 8.24805H61.6416V9.28906H63.9639V22.3418C63.9639 23.5163 63.4967 24.1836 62.5625 24.3438C62.2956 24.3971 61.9886 24.4238 61.6416 24.4238V25.4648H72.9727C72.9727 24.8509 72.7992 24.5173 72.4521 24.4639C72.3187 24.4372 72.1719 24.4238 72.0117 24.4238Z" fill="#E4E4E7"/>
<path d="M84.4238 16.7764C84.4238 13.0394 84.8776 10.6504 85.7852 9.60938C86.3457 8.99544 87.1331 8.68848 88.1475 8.68848C89.8558 8.68848 90.9502 9.55599 91.4307 11.291C91.751 12.4121 91.9111 14.1872 91.9111 16.6162C91.9111 20.5133 91.404 22.9691 90.3896 23.9834C89.8024 24.5439 89.0417 24.8242 88.1074 24.8242C86.4525 24.8242 85.3848 23.9701 84.9043 22.2617C84.584 21.1139 84.4238 19.2855 84.4238 16.7764ZM88.3477 7.64746C85.0645 7.64746 82.542 8.76855 80.7803 11.0107C79.5524 12.6123 78.9385 14.4808 78.9385 16.6162C78.9385 19.6325 79.9795 22.0215 82.0615 23.7832C83.7165 25.1712 85.6917 25.8652 87.9873 25.8652C91.137 25.8652 93.6061 24.7308 95.3945 22.4619C96.7292 20.7536 97.3965 18.7783 97.3965 16.5361C97.3965 13.5465 96.3421 11.2109 94.2334 9.5293C92.6051 8.27474 90.6432 7.64746 88.3477 7.64746Z" fill="#E4E4E7"/>
<path d="M107.526 24.4238H106.806L106.846 14.0938C107.006 11.985 107.7 10.6104 108.928 9.96973C109.275 9.78288 109.622 9.68945 109.969 9.68945C110.956 9.68945 111.664 10.3034 112.091 11.5312C112.278 12.1185 112.371 12.7725 112.371 13.4932V22.3418C112.371 23.4362 112.118 24.0902 111.61 24.3037C111.37 24.3838 111.036 24.4238 110.609 24.4238V25.4648H119.098C119.098 24.8509 118.924 24.5173 118.577 24.4639C118.417 24.4372 118.257 24.4238 118.097 24.4238H117.416V14.1738V13.8936C117.603 11.6781 118.324 10.3034 119.578 9.76953C119.845 9.66276 120.112 9.60938 120.379 9.60938C121.527 9.60938 122.314 10.29 122.741 11.6514C122.901 12.2119 122.981 12.8258 122.981 13.4932V22.3418C122.981 23.4362 122.728 24.0902 122.221 24.3037C121.98 24.3838 121.647 24.4238 121.22 24.4238V25.4648H130.349C130.349 24.8509 130.175 24.5173 129.828 24.4639C129.668 24.4372 129.508 24.4238 129.348 24.4238H128.026V13.9736C128.026 11.3577 127.159 9.5026 125.424 8.4082C124.623 7.90104 123.756 7.64746 122.821 7.64746C120.232 7.67415 118.297 8.91536 117.016 11.3711C116.375 9.47591 115.241 8.28809 113.612 7.80762C113.185 7.70085 112.758 7.64746 112.331 7.64746C109.769 7.67415 107.9 8.84863 106.726 11.1709L106.525 8.24805H99.3984V9.28906H101.721V22.3418C101.721 23.5697 101.147 24.2503 99.999 24.3838C99.8122 24.4105 99.612 24.4238 99.3984 24.4238V25.4648H108.487C108.487 24.8509 108.314 24.5173 107.967 24.4639C107.833 24.4372 107.687 24.4238 107.526 24.4238Z" fill="#E4E4E7"/>
<path d="M140.839 24.4238H139.357V8.24805H131.95V9.28906H134.272V22.3418C134.272 23.5163 133.805 24.1836 132.871 24.3438C132.604 24.3971 132.297 24.4238 131.95 24.4238V25.4648H141.8C141.8 24.8509 141.626 24.5173 141.279 24.4639C141.146 24.4372 140.999 24.4238 140.839 24.4238ZM139.718 3.00293C139.718 1.82845 139.197 0.960938 138.156 0.400391C137.702 0.133464 137.222 0 136.715 0C135.567 0 134.7 0.520508 134.112 1.56152C133.872 2.0153 133.752 2.49577 133.752 3.00293C133.752 4.17741 134.272 5.03158 135.313 5.56543C135.767 5.80566 136.234 5.92578 136.715 5.92578C137.889 5.92578 138.757 5.43197 139.317 4.44434C139.584 3.99056 139.718 3.51009 139.718 3.00293Z" fill="#E4E4E7"/>
<path d="M142.801 25.4648H148.847V24.4238H146.044L150.849 18.418L154.853 24.4238H152.65V25.4648H161.899C161.899 24.8509 161.686 24.5173 161.259 24.4639C161.152 24.4372 161.032 24.4238 160.898 24.4238H160.098L154.252 15.6152L158.216 10.4502C158.75 9.72949 159.43 9.3291 160.258 9.24902C160.658 9.19564 160.898 9.03548 160.979 8.76855C161.005 8.6084 161.019 8.4349 161.019 8.24805H155.093V9.28906H157.695L153.571 14.6143L150.048 9.28906H152.25V8.24805H142.961V9.28906H144.803L150.248 17.457L145.523 23.2627C144.963 23.93 144.282 24.3304 143.481 24.4639C143.108 24.4906 142.894 24.6507 142.841 24.9443C142.814 25.1045 142.801 25.278 142.801 25.4648Z" fill="#E4E4E7"/>
</svg>
