<svg width="176" height="30" viewBox="0 0 176 30" fill="none" xmlns="http://www.w3.org/2000/svg">
<path d="M170.163 23.9598C169.599 23.3303 169.12 22.6279 168.74 21.8712C168.139 20.6851 167.309 19.6321 166.298 18.7743C165.287 17.9165 164.115 17.2712 162.853 16.8764C161.749 16.5326 160.594 16.3866 159.439 16.4452C160.279 16.3969 161.107 16.67 161.755 17.2101C162.403 17.75 162.825 18.5169 162.936 19.357C163.24 21.1722 164.039 22.8666 165.243 24.251C166.448 25.6353 168.011 26.6551 169.757 27.1964C171.755 27.8147 173.895 27.7814 175.872 27.1012C173.67 26.7393 171.656 25.6312 170.163 23.9598Z" fill="#E4E4E7"/>
<path d="M156.001 16.2659C156.258 17.3866 156.71 18.4542 157.337 19.4208C156.879 18.719 156.703 17.8724 156.843 17.0481C156.983 16.2237 157.43 15.4814 158.094 14.9675C159.505 13.809 160.564 12.2845 161.154 10.5637C161.743 8.84288 161.84 6.9934 161.434 5.22123C160.969 3.1939 159.868 1.36553 158.289 0C159.075 2.08634 159.12 4.37666 158.417 6.492C158.147 7.2906 157.773 8.05042 157.303 8.75177C156.582 9.85353 156.091 11.0877 155.859 12.3812C155.626 13.6746 155.658 15.0012 155.951 16.2825L156.001 16.2659Z" fill="#E4E4E7"/>
<path d="M160.923 20.168C160.55 20.9219 159.909 21.5047 159.131 21.7993C158.353 22.094 157.493 22.0787 156.725 21.7566C155.033 21.1124 153.198 20.9588 151.425 21.3132C149.651 21.6676 148.01 22.5159 146.684 23.7634C145.172 25.1922 144.146 27.0719 143.754 29.1314C145.161 27.3966 147.108 26.201 149.274 25.7422C150.088 25.5731 150.919 25.5075 151.749 25.5471C153.05 25.6156 154.352 25.4186 155.577 24.9677C156.802 24.5167 157.926 23.8211 158.882 22.9217C159.718 22.1322 160.413 21.2003 160.934 20.168H160.923Z" fill="#E4E4E7"/>
<path d="M0 28.9997H4.716V17.5157C4.716 16.2437 5.064 15.2237 5.76 14.4557C6.456 13.6877 7.368 13.3037 8.496 13.3037C9.648 13.3037 10.56 13.6877 11.232 14.4557C11.928 15.1997 12.276 16.2197 12.276 17.5157V28.9997H16.992V17.5157C16.992 16.2437 17.34 15.2237 18.036 14.4557C18.732 13.6877 19.644 13.3037 20.772 13.3037C21.924 13.3037 22.836 13.6877 23.508 14.4557C24.204 15.1997 24.552 16.2197 24.552 17.5157V28.9997H29.268V16.3997C29.268 14.9357 28.944 13.6517 28.296 12.5477C27.672 11.4197 26.82 10.5437 25.74 9.91969C24.66 9.29569 23.424 8.98369 22.032 8.98369C20.736 8.98369 19.56 9.24769 18.504 9.77569C17.472 10.3037 16.62 11.0957 15.948 12.1517C15.372 11.1917 14.544 10.4237 13.464 9.84769C12.408 9.27169 11.22 8.98369 9.9 8.98369C8.676 8.98369 7.584 9.22369 6.624 9.70369C5.664 10.1837 4.932 10.9037 4.428 11.8637V9.41569H0V28.9997Z" fill="#E4E4E7"/>
<path d="M39.1978 29.4317C41.7418 29.4317 43.7818 28.5917 45.3178 26.9117V28.9997H49.7818V15.9677C49.7818 14.5997 49.4338 13.3877 48.7378 12.3317C48.0418 11.2757 47.0818 10.4597 45.8578 9.88369C44.6578 9.28369 43.2538 8.98369 41.6458 8.98369C39.6778 8.98369 37.9258 9.45169 36.3898 10.3877C34.8538 11.3237 33.7978 12.5597 33.2218 14.0957L37.0738 15.9677C37.4338 15.0797 37.9978 14.3717 38.7658 13.8437C39.5338 13.2917 40.4338 13.0157 41.4658 13.0157C42.5458 13.0157 43.4098 13.3037 44.0578 13.8797C44.7298 14.4317 45.0658 15.1277 45.0658 15.9677V16.6157L39.2338 17.5517C36.9298 17.9357 35.2258 18.6677 34.1218 19.7477C33.0178 20.8277 32.4658 22.1837 32.4658 23.8157C32.4658 25.5437 33.0778 26.9117 34.3018 27.9197C35.5258 28.9277 37.1578 29.4317 39.1978 29.4317ZM37.3618 23.6357C37.3618 22.2677 38.2858 21.4037 40.1338 21.0437L45.0658 20.2157V21.0077C45.0658 22.3517 44.5978 23.4917 43.6618 24.4277C42.7498 25.3637 41.5498 25.8317 40.0618 25.8317C39.2698 25.8317 38.6218 25.6397 38.1178 25.2557C37.6138 24.8477 37.3618 24.3077 37.3618 23.6357Z" fill="#E4E4E7"/>
<path d="M54.1406 28.9997H58.8566V18.0917C58.8566 16.6037 59.2646 15.4517 60.0806 14.6357C60.9206 13.7957 62.0006 13.3757 63.3206 13.3757H65.0126V9.19969H63.8606C62.6606 9.19969 61.6046 9.41569 60.6926 9.84769C59.7806 10.2797 59.0726 11.0597 58.5686 12.1877V9.41569H54.1406V28.9997Z" fill="#E4E4E7"/>
<path d="M77.0608 29.2157C77.8528 29.2157 78.6328 29.1557 79.4008 29.0357V24.9677C78.9448 25.0397 78.5248 25.0757 78.1408 25.0757C76.9888 25.0757 76.1488 24.8117 75.6208 24.2837C75.0928 23.7557 74.8288 22.9997 74.8288 22.0157V13.6277H79.3288V9.41569H74.8288V4.95169H70.1128V6.46369C70.1128 7.42369 69.8488 8.15569 69.3208 8.65969C68.7928 9.16369 68.0488 9.41569 67.0888 9.41569H66.7288V13.6277H70.1128V22.2677C70.1128 24.4517 70.7128 26.1557 71.9128 27.3797C73.1368 28.6037 74.8528 29.2157 77.0608 29.2157Z" fill="#E4E4E7"/>
<path d="M83.0039 7.21969H87.7199V2.17969H83.0039V7.21969ZM83.0039 28.9997H87.7199V9.41569H83.0039V28.9997Z" fill="#E4E4E7"/>
<path d="M92.0742 28.9997H96.7902V17.5157C96.7902 16.2437 97.1502 15.2237 97.8702 14.4557C98.6142 13.6877 99.5742 13.3037 100.75 13.3037C101.926 13.3037 102.874 13.6877 103.594 14.4557C104.338 15.1997 104.71 16.2197 104.71 17.5157V28.9997H109.426V16.3997C109.426 14.9357 109.114 13.6517 108.49 12.5477C107.866 11.4197 106.99 10.5437 105.862 9.91969C104.758 9.29569 103.486 8.98369 102.046 8.98369C100.822 8.98369 99.7182 9.22369 98.7342 9.70369C97.7742 10.1837 97.0302 10.8917 96.5022 11.8277V9.41569H92.0742V28.9997Z" fill="#E4E4E7"/>
<path d="M122.99 29.4317C124.886 29.4317 126.614 28.9997 128.174 28.1357C129.734 27.2477 130.982 26.0357 131.918 24.4997C132.854 22.9397 133.322 21.1757 133.322 19.2077C133.322 17.2397 132.854 15.4877 131.918 13.9517C131.006 12.4157 129.77 11.2037 128.21 10.3157C126.65 9.42769 124.91 8.98369 122.99 8.98369C121.046 8.98369 119.294 9.42769 117.734 10.3157C116.174 11.2037 114.926 12.4157 113.99 13.9517C113.078 15.4877 112.622 17.2397 112.622 19.2077C112.622 21.1757 113.078 22.9277 113.99 24.4637C114.926 25.9997 116.174 27.2117 117.734 28.0997C119.318 28.9877 121.07 29.4317 122.99 29.4317ZM122.99 25.1117C121.934 25.1117 120.986 24.8597 120.146 24.3557C119.33 23.8517 118.682 23.1557 118.202 22.2677C117.746 21.3557 117.518 20.3357 117.518 19.2077C117.518 18.0797 117.746 17.0717 118.202 16.1837C118.682 15.2957 119.33 14.5997 120.146 14.0957C120.986 13.5677 121.934 13.3037 122.99 13.3037C124.046 13.3037 124.97 13.5677 125.762 14.0957C126.578 14.5997 127.214 15.2957 127.67 16.1837C128.15 17.0717 128.39 18.0797 128.39 19.2077C128.39 20.3357 128.15 21.3557 127.67 22.2677C127.214 23.1557 126.578 23.8517 125.762 24.3557C124.97 24.8597 124.046 25.1117 122.99 25.1117Z" fill="#E4E4E7"/>
</svg>
