<svg width="187" height="40" viewBox="0 0 187 40" fill="none" xmlns="http://www.w3.org/2000/svg">
<path d="M21.2436 6.70351L22.7306 5.21643C25.6509 2.29621 30.405 2.22393 33.3421 5.12733C34.455 6.22993 35.1946 7.65344 35.4569 9.19792C35.7193 10.7424 35.4911 12.3303 34.8047 13.7385C34.4754 14.4112 34.3645 15.1699 34.4873 15.9087C34.6102 16.6475 34.9607 17.3294 35.49 17.8593C36.4633 16.8838 37.2346 15.7261 37.7603 14.4524C38.2859 13.1786 38.5555 11.8138 38.5536 10.4359C38.5515 9.05793 38.2783 7.69387 37.749 6.42162C37.2197 5.14936 36.4449 3.99385 35.469 3.0211C31.3621 -1.06266 24.6957 -0.981395 20.6003 3.11384L6.42598 17.2878L5.26072 16.1225C2.29097 13.1528 2.27204 8.29843 5.29418 5.38145C6.41284 4.30505 7.83804 3.60237 9.37307 3.37043C10.9081 3.13849 12.4773 3.38871 13.864 4.08655C14.497 4.41091 15.2163 4.52693 15.9191 4.41808C16.622 4.30922 17.2724 3.98104 17.7776 3.4804L17.8138 3.44445C17.825 3.43328 17.8339 3.41999 17.84 3.40535C17.8461 3.39072 17.8492 3.37502 17.8492 3.35917C17.8492 3.34332 17.8461 3.32762 17.84 3.31299C17.8339 3.29836 17.825 3.28507 17.8138 3.27389C15.8628 1.372 13.2485 0.303712 10.524 0.295074C7.79945 0.286439 5.1784 1.33813 3.21549 3.22761C-1.01284 7.30947 -0.99773 14.0972 3.15812 18.253L17.3283 32.4232L15.823 33.9284C12.9028 36.8487 8.14844 36.9209 5.21158 34.0175C4.09869 32.915 3.35913 31.4914 3.09676 29.947C2.83442 28.4025 3.06242 26.8147 3.74879 25.4064C4.07808 24.7337 4.18906 23.975 4.06624 23.2363C3.9434 22.4974 3.59289 21.8154 3.06366 21.2855C2.09044 22.2611 1.31896 23.4187 0.793288 24.6924C0.267614 25.9663 -0.00194275 27.331 1.05399e-05 28.709C0.00196383 30.0869 0.275389 31.4511 0.804672 32.7232C1.33395 33.9955 2.10872 35.1511 3.0847 36.1238C7.19141 40.2077 13.8579 40.1266 17.9533 36.0312L32.146 21.8383L33.3157 23.008C36.2359 25.9282 36.3082 30.6824 33.4048 33.6192C32.3023 34.7323 30.8787 35.4717 29.3342 35.7343C27.7898 35.9966 26.2019 35.7685 24.7937 35.082C24.1208 34.7526 23.3616 34.6415 22.6226 34.7646C21.8836 34.8876 21.2013 35.2384 20.6715 35.7681C21.647 36.7414 22.8046 37.5129 24.0783 38.0386C25.3522 38.5642 26.7169 38.8338 28.095 38.8319C29.4729 38.8298 30.837 38.5564 32.1091 38.0271C33.3815 37.4978 34.537 36.723 35.5097 35.7471C39.5937 31.6404 39.5124 24.9739 35.4171 20.8786L21.2436 6.70351ZM19.4442 30.3062L8.54253 19.4045L19.1268 8.82044L30.0285 19.7222L19.4442 30.3062Z" fill="#E4E4E7"/>
<path d="M56.6514 32.2149C54.4821 32.2149 52.8237 31.5784 51.6763 30.3055C50.5378 29.0325 49.9013 27.2935 49.7669 25.0882L53.2092 24.2277C53.3795 27.67 54.5269 29.3911 56.6514 29.3911C58.3726 29.3911 59.2332 28.5305 59.2332 26.8094C59.2332 26.2984 59.1614 25.8278 59.018 25.3975C58.8836 24.9583 58.6729 24.5594 58.386 24.2008C58.0992 23.8332 57.8392 23.5419 57.6061 23.3268C57.3731 23.1027 57.0548 22.8292 56.6514 22.5065L52.3486 19.0642C51.5597 18.4457 50.9277 17.6613 50.4526 16.7111C49.9865 15.7519 49.7534 14.6628 49.7534 13.4436C49.7534 11.6687 50.3047 10.2568 51.4073 9.208C52.5099 8.15918 53.9711 7.63477 55.7909 7.63477C57.7451 7.63477 59.2959 8.11436 60.4433 9.07354C61.5997 10.0238 62.3124 11.3729 62.5813 13.1209C62.6082 13.3092 62.6396 13.5691 62.6755 13.9008L59.2332 14.7614C59.2242 14.609 59.2018 14.3804 59.1659 14.0756C59.0135 12.982 58.6684 12.1079 58.1306 11.4536C57.6017 10.7902 56.8218 10.4585 55.7909 10.4585C54.9662 10.4585 54.3297 10.6916 53.8815 11.1577C53.4333 11.6149 53.2092 12.2559 53.2092 13.0806C53.2092 14.4342 53.7829 15.5682 54.9303 16.4825L59.2332 19.9248C61.528 21.7804 62.6755 23.9991 62.6755 26.5808C62.6755 28.3468 62.1286 29.7273 61.035 30.7223C59.9503 31.7173 58.4891 32.2149 56.6514 32.2149Z" fill="#E4E4E7"/>
<path d="M69.8693 29.3911C70.7747 29.3911 71.6353 29.158 72.451 28.6919V18.0423C72.4152 18.0244 72.3255 17.9706 72.1821 17.881C72.0387 17.7913 71.9356 17.733 71.8728 17.7062C71.819 17.6703 71.7249 17.6165 71.5904 17.5448C71.456 17.4731 71.3439 17.4238 71.2543 17.3969C71.1736 17.361 71.066 17.3252 70.9316 17.2893C70.8061 17.2445 70.6806 17.2131 70.5551 17.1952C70.4385 17.1773 70.313 17.1683 70.1786 17.1683C69.8917 17.1683 69.6362 17.2355 69.4121 17.37C69.197 17.4955 69.0177 17.6479 68.8743 17.8272C68.7308 18.0065 68.6053 18.2619 68.4978 18.5936C68.3992 18.9253 68.3274 19.2211 68.2826 19.4811C68.2378 19.7321 68.2019 20.0727 68.175 20.503C68.1482 20.9243 68.1302 21.2515 68.1213 21.4846C68.1213 21.7177 68.1213 22.0449 68.1213 22.4662C68.1213 22.4841 68.1213 22.4976 68.1213 22.5065C68.1213 22.6589 68.1213 22.9054 68.1213 23.2461C68.1213 23.5867 68.1213 23.9139 68.1213 24.2277C68.1213 24.5414 68.1213 24.8372 68.1213 25.1151C68.1302 25.7157 68.1571 26.2446 68.2019 26.7018C68.2557 27.15 68.3409 27.5938 68.4574 28.033C68.5829 28.4633 68.7622 28.7995 68.9953 29.0415C69.2373 29.2746 69.5287 29.3911 69.8693 29.3911ZM72.451 37.1363V30.4265C71.9401 30.9554 71.4112 31.3857 70.8643 31.7173C70.3265 32.049 69.7079 32.2149 69.0087 32.2149C68.3454 32.2149 67.7537 32.049 67.2338 31.7173C66.7228 31.3767 66.3105 30.9419 65.9967 30.413C65.6919 29.8841 65.4365 29.2611 65.2303 28.544C65.0331 27.8179 64.8941 27.1052 64.8134 26.406C64.7417 25.7068 64.7059 24.9807 64.7059 24.2277V21.6056C64.7059 20.8257 64.7417 20.1131 64.8134 19.4676C64.8851 18.8222 65.0151 18.1857 65.2034 17.5582C65.3916 16.9307 65.6382 16.4018 65.9429 15.9716C66.2567 15.5323 66.669 15.1827 67.18 14.9227C67.691 14.6538 68.2826 14.5193 68.9549 14.5193C69.3404 14.5193 69.699 14.5731 70.0307 14.6807C70.3713 14.7793 70.694 14.9407 70.9988 15.1648C71.3126 15.3889 71.5546 15.5861 71.7249 15.7564C71.9042 15.9178 72.1462 16.1598 72.451 16.4825V14.7614H75.8933V37.1363H72.451Z" fill="#E4E4E7"/>
<path d="M81.1105 32.2149C80.3575 32.2149 79.7524 31.9504 79.2953 31.4215C78.8381 30.8837 78.6095 30.2203 78.6095 29.4315V14.7614H82.0518V28.3826C82.0518 28.7412 82.1594 29.0325 82.3745 29.2566C82.5986 29.4808 82.8855 29.5928 83.2351 29.5928C83.4233 29.5928 83.6071 29.5704 83.7864 29.5256C83.9657 29.4808 84.1405 29.4046 84.3108 29.297C84.4901 29.1805 84.629 29.0908 84.7276 29.0281C84.8262 28.9563 84.9652 28.8398 85.1445 28.6784C85.3327 28.5171 85.4492 28.4185 85.4941 28.3826V14.7614H88.9364V31.9728H85.4941V30.1172C85.1534 30.413 84.9024 30.6282 84.7411 30.7626C84.5887 30.8971 84.3511 31.0809 84.0284 31.314C83.7057 31.5381 83.4188 31.7039 83.1678 31.8115C82.9258 31.9101 82.621 31.9997 82.2535 32.0804C81.8859 32.17 81.505 32.2149 81.1105 32.2149Z" fill="#E4E4E7"/>
<path d="M96.6546 29.3911C96.8967 29.3911 97.1297 29.3194 97.3538 29.176C97.5869 29.0325 97.7617 28.8936 97.8782 28.7591C97.9948 28.6247 98.1382 28.4454 98.3085 28.2213C98.3354 28.1764 98.3578 28.1451 98.3758 28.1271V23.3671C98.2323 23.4657 97.9948 23.6181 97.6631 23.8243C97.3314 24.0305 97.067 24.2008 96.8698 24.3352C96.6725 24.4607 96.435 24.64 96.1571 24.8731C95.8792 25.0972 95.6641 25.3168 95.5117 25.532C95.3593 25.7382 95.2248 25.9936 95.1083 26.2984C94.9917 26.6032 94.9335 26.9214 94.9335 27.2531C94.9335 28.6784 95.5072 29.3911 96.6546 29.3911ZM94.9335 32.2149C93.9743 32.2149 93.1585 31.8025 92.4862 30.9778C91.8229 30.1441 91.4912 29.2073 91.4912 28.1675C91.4912 27.3338 91.6301 26.5763 91.908 25.895C92.1949 25.2137 92.4952 24.6714 92.8089 24.268C93.1227 23.8557 93.6471 23.4343 94.3822 23.0041C95.1172 22.5648 95.673 22.2645 96.0495 22.1031C96.426 21.9418 97.0804 21.6773 98.0127 21.3098C98.1741 21.247 98.2951 21.1977 98.3758 21.1619V19.9248C98.3758 19.0553 98.2547 18.383 98.0127 17.9078C97.7707 17.4238 97.318 17.1817 96.6546 17.1817C96.063 17.1817 95.6372 17.3879 95.3772 17.8003C95.1262 18.2037 94.9828 18.7639 94.9469 19.4811C94.938 19.5797 94.9335 19.7276 94.9335 19.9248H91.4912C91.5091 18.2754 91.9708 16.9621 92.8762 15.985C93.7816 15.0079 95.041 14.5193 96.6546 14.5193C98.2592 14.5193 99.5187 15.0169 100.433 16.0119C101.356 16.998 101.818 18.3023 101.818 19.9248V27.67C101.818 29.4628 101.966 30.8971 102.262 31.9728H98.8329L98.3758 29.3911C98.1965 29.7497 98.0486 30.0276 97.932 30.2248C97.8245 30.422 97.6631 30.6685 97.448 30.9643C97.2328 31.2512 97.0177 31.4753 96.8025 31.6367C96.5874 31.7891 96.3185 31.9235 95.9957 32.0401C95.673 32.1566 95.3189 32.2149 94.9335 32.2149Z" fill="#E4E4E7"/>
<path d="M104.79 31.9728V14.7614H108.232V17.0607C108.582 16.3794 109.088 15.7878 109.751 15.2858C110.424 14.7748 111.168 14.5193 111.984 14.5193C112.01 14.5193 112.194 14.5373 112.535 14.5731V18.3785C111.898 18.1275 111.262 18.002 110.625 18.002C109.908 18.002 109.33 18.2171 108.891 18.6474C108.452 19.0777 108.232 19.6469 108.232 20.3551V31.9728H104.79Z" fill="#E4E4E7"/>
<path d="M118.855 32.2149C118.021 32.2149 117.295 32.0714 116.676 31.7846C116.067 31.4977 115.578 31.1257 115.211 30.6685C114.852 30.2024 114.561 29.6107 114.337 28.8936C114.113 28.1675 113.956 27.4459 113.866 26.7287C113.785 26.0026 113.736 25.16 113.718 24.2008C113.691 23.4478 113.691 22.6948 113.718 21.9418C113.745 21.0454 113.803 20.252 113.893 19.5618C113.992 18.8625 114.157 18.1857 114.39 17.5313C114.624 16.877 114.924 16.3391 115.291 15.9178C115.668 15.4965 116.156 15.1603 116.757 14.9093C117.367 14.6493 118.075 14.5193 118.882 14.5193C119.617 14.5193 120.262 14.618 120.818 14.8152C121.383 15.0034 121.849 15.2948 122.216 15.6892C122.593 16.0746 122.902 16.5049 123.144 16.98C123.395 17.4552 123.583 18.0333 123.709 18.7146C123.834 19.387 123.92 20.0503 123.964 20.7047C124.018 21.3591 124.045 22.1121 124.045 22.9637V23.3671H117.16V24.2277C117.16 24.3442 117.16 24.528 117.16 24.779C117.143 25.1107 117.138 25.4558 117.147 25.8144C117.165 26.164 117.183 26.5091 117.201 26.8497C117.219 27.1904 117.268 27.5176 117.349 27.8313C117.429 28.1361 117.528 28.405 117.645 28.6381C117.761 28.8712 117.922 29.055 118.129 29.1894C118.344 29.3239 118.595 29.3911 118.882 29.3911C119.24 29.3911 119.536 29.3239 119.769 29.1894C120.002 29.046 120.172 28.8353 120.28 28.5574C120.397 28.2795 120.477 28.0016 120.522 27.7238C120.567 27.4459 120.594 27.0963 120.603 26.6749V25.9488H124.018V26.6346C123.937 28.4723 123.485 29.8617 122.66 30.803C121.835 31.7442 120.567 32.2149 118.855 32.2149ZM117.16 21.646H120.576V20.6106C120.567 20.1534 120.54 19.7545 120.495 19.4139C120.45 19.0732 120.37 18.7326 120.253 18.3919C120.146 18.0513 119.975 17.7913 119.742 17.612C119.509 17.4327 119.222 17.3431 118.882 17.3431C118.532 17.3431 118.236 17.4372 117.994 17.6255C117.761 17.8137 117.586 18.0871 117.47 18.4457C117.362 18.7953 117.286 19.1404 117.241 19.4811C117.196 19.8217 117.169 20.2296 117.16 20.7047V21.646Z" fill="#E4E4E7"/>
<path d="M132.973 32.2149C130.804 32.2149 129.146 31.5784 127.998 30.3055C126.86 29.0325 126.223 27.2935 126.089 25.0882L129.531 24.2277C129.701 27.67 130.849 29.3911 132.973 29.3911C134.695 29.3911 135.555 28.5305 135.555 26.8094C135.555 26.2984 135.483 25.8278 135.34 25.3975C135.206 24.9583 134.995 24.5594 134.708 24.2008C134.421 23.8332 134.161 23.5419 133.928 23.3268C133.695 23.1027 133.377 22.8292 132.973 22.5065L128.671 19.0642C127.882 18.4457 127.25 17.6613 126.775 16.7111C126.309 15.7519 126.075 14.6628 126.075 13.4436C126.075 11.6687 126.627 10.2568 127.729 9.208C128.832 8.15918 130.293 7.63477 132.113 7.63477C134.067 7.63477 135.618 8.11436 136.765 9.07354C137.922 10.0238 138.634 11.3729 138.903 13.1209C138.93 13.3092 138.962 13.5691 138.997 13.9008L135.555 14.7614C135.546 14.609 135.524 14.3804 135.488 14.0756C135.336 12.982 134.99 12.1079 134.453 11.4536C133.924 10.7902 133.144 10.4585 132.113 10.4585C131.288 10.4585 130.652 10.6916 130.203 11.1577C129.755 11.6149 129.531 12.2559 129.531 13.0806C129.531 14.4342 130.105 15.5682 131.252 16.4825L135.555 19.9248C137.85 21.7804 138.997 23.9991 138.997 26.5808C138.997 28.3468 138.451 29.7273 137.357 30.7223C136.272 31.7173 134.811 32.2149 132.973 32.2149Z" fill="#E4E4E7"/>
<path d="M146.138 32.2149C144.784 32.2149 143.798 31.8697 143.179 31.1795C142.57 30.4892 142.256 29.4449 142.238 28.0465V17.3431H140.517V14.7614H142.238V8.73737H145.68V14.7614H148.262V17.3431H145.68V27.3876C145.68 28.0778 145.774 28.5843 145.963 28.907C146.151 29.2298 146.532 29.3911 147.106 29.3911C147.357 29.3911 147.742 29.3463 148.262 29.2566V32.0535C147.401 32.1611 146.693 32.2149 146.138 32.2149Z" fill="#E4E4E7"/>
<path d="M159.476 30.6013C158.679 31.677 157.356 32.2149 155.51 32.2149C153.663 32.2149 152.341 31.677 151.543 30.6013C150.745 29.5256 150.346 27.9748 150.346 25.9488V20.7854C150.346 18.7595 150.745 17.2086 151.543 16.1329C152.341 15.0572 153.663 14.5193 155.51 14.5193C157.356 14.5193 158.679 15.0572 159.476 16.1329C160.274 17.2086 160.673 18.7595 160.673 20.7854V25.9488C160.673 27.9748 160.274 29.5256 159.476 30.6013ZM154.864 29.2835C155.053 29.3553 155.268 29.3911 155.51 29.3911C155.752 29.3911 155.962 29.3553 156.142 29.2835C156.33 29.2118 156.482 29.1267 156.599 29.0281C156.724 28.9205 156.827 28.7681 156.908 28.5709C156.989 28.3647 157.052 28.1854 157.096 28.033C157.141 27.8806 157.173 27.661 157.191 27.3741C157.208 27.0873 157.217 26.8632 157.217 26.7018C157.226 26.5315 157.231 26.2805 157.231 25.9488V20.7854C157.231 20.4537 157.226 20.2072 157.217 20.0458C157.217 19.8755 157.208 19.6469 157.191 19.3601C157.173 19.0732 157.141 18.8536 157.096 18.7012C157.052 18.5488 156.989 18.374 156.908 18.1768C156.827 17.9706 156.724 17.8182 156.599 17.7196C156.482 17.612 156.33 17.5224 156.142 17.4507C155.962 17.379 155.752 17.3431 155.51 17.3431C155.268 17.3431 155.053 17.379 154.864 17.4507C154.685 17.5224 154.533 17.612 154.407 17.7196C154.291 17.8182 154.192 17.9706 154.111 18.1768C154.031 18.374 153.968 18.5488 153.923 18.7012C153.878 18.8536 153.847 19.0732 153.829 19.3601C153.811 19.6469 153.798 19.8755 153.789 20.0458C153.789 20.2072 153.789 20.4537 153.789 20.7854V25.9488C153.789 26.2805 153.789 26.5315 153.789 26.7018C153.798 26.8632 153.811 27.0873 153.829 27.3741C153.847 27.661 153.878 27.8806 153.923 28.033C153.968 28.1854 154.031 28.3647 154.111 28.5709C154.192 28.7681 154.291 28.9205 154.407 29.0281C154.533 29.1267 154.685 29.2118 154.864 29.2835Z" fill="#E4E4E7"/>
<path d="M163.497 31.9728V14.7614H166.939V16.617C167.45 16.1508 167.867 15.7968 168.19 15.5547C168.512 15.3037 168.956 15.0706 169.521 14.8555C170.095 14.6314 170.704 14.5193 171.35 14.5193C172.085 14.5193 172.681 14.7883 173.138 15.3261C173.595 15.864 173.824 16.5229 173.824 17.3028V31.9728H170.381V19.0642C170.381 18.4636 170.296 18.0289 170.126 17.7599C169.956 17.482 169.611 17.3431 169.091 17.3431C168.795 17.3431 168.499 17.4058 168.203 17.5313C167.916 17.6479 167.701 17.7599 167.558 17.8675C167.414 17.9661 167.208 18.1275 166.939 18.3516V31.9728H163.497Z" fill="#E4E4E7"/>
<path d="M181.703 32.2149C180.87 32.2149 180.144 32.0714 179.525 31.7846C178.915 31.4977 178.427 31.1257 178.059 30.6685C177.701 30.2024 177.409 29.6107 177.185 28.8936C176.961 28.1675 176.804 27.4459 176.715 26.7287C176.634 26.0026 176.585 25.16 176.567 24.2008C176.54 23.4478 176.54 22.6948 176.567 21.9418C176.594 21.0454 176.652 20.252 176.742 19.5618C176.84 18.8625 177.006 18.1857 177.239 17.5313C177.472 16.877 177.773 16.3391 178.14 15.9178C178.517 15.4965 179.005 15.1603 179.606 14.9093C180.215 14.6493 180.923 14.5193 181.73 14.5193C182.465 14.5193 183.111 14.618 183.667 14.8152C184.231 15.0034 184.697 15.2948 185.065 15.6892C185.441 16.0746 185.751 16.5049 185.993 16.98C186.244 17.4552 186.432 18.0333 186.558 18.7146C186.683 19.387 186.768 20.0503 186.813 20.7047C186.867 21.3591 186.894 22.1121 186.894 22.9637V23.3671H180.009V24.2277C180.009 24.3442 180.009 24.528 180.009 24.779C179.991 25.1107 179.987 25.4558 179.996 25.8144C180.014 26.164 180.032 26.5091 180.049 26.8497C180.067 27.1904 180.117 27.5176 180.197 27.8313C180.278 28.1361 180.377 28.405 180.493 28.6381C180.61 28.8712 180.771 29.055 180.977 29.1894C181.192 29.3239 181.443 29.3911 181.73 29.3911C182.089 29.3911 182.385 29.3239 182.618 29.1894C182.851 29.046 183.021 28.8353 183.129 28.5574C183.245 28.2795 183.326 28.0016 183.371 27.7238C183.416 27.4459 183.442 27.0963 183.451 26.6749V25.9488H186.867V26.6346C186.786 28.4723 186.333 29.8617 185.509 30.803C184.684 31.7442 183.416 32.2149 181.703 32.2149ZM180.009 21.646H183.425V20.6106C183.416 20.1534 183.389 19.7545 183.344 19.4139C183.299 19.0732 183.218 18.7326 183.102 18.3919C182.994 18.0513 182.824 17.7913 182.591 17.612C182.358 17.4327 182.071 17.3431 181.73 17.3431C181.381 17.3431 181.085 17.4372 180.843 17.6255C180.61 17.8137 180.435 18.0871 180.318 18.4457C180.211 18.7953 180.135 19.1404 180.09 19.4811C180.045 19.8217 180.018 20.2296 180.009 20.7047V21.646Z" fill="#E4E4E7"/>
</svg>
