<svg width="404" height="310" viewBox="0 0 404 310" fill="none" xmlns="http://www.w3.org/2000/svg">
<g filter="url(#filter0_d_1_3428)">
<rect x="75" y="45" width="254" height="182" rx="10" fill="white"/>
<g clip-path="url(#clip0_1_3428)">
<path d="M92.5135 101.956V101.129H98.285V101.956H95.8651V108.824H94.9333V101.956H92.5135ZM101.186 108.945C100.63 108.945 100.15 108.822 99.7466 108.576C99.3458 108.328 99.0365 107.983 98.8185 107.539C98.6031 107.094 98.4954 106.575 98.4954 105.984C98.4954 105.393 98.6031 104.872 98.8185 104.421C99.0365 103.967 99.3396 103.614 99.7278 103.361C100.119 103.106 100.575 102.978 101.096 102.978C101.396 102.978 101.693 103.028 101.986 103.128C102.279 103.228 102.546 103.391 102.786 103.617C103.027 103.84 103.219 104.135 103.361 104.503C103.504 104.872 103.575 105.325 103.575 105.864V106.239H99.1266V105.473H102.674C102.674 105.147 102.609 104.857 102.478 104.601C102.351 104.346 102.168 104.144 101.93 103.996C101.694 103.848 101.416 103.774 101.096 103.774C100.742 103.774 100.437 103.862 100.179 104.037C99.9232 104.21 99.7266 104.436 99.5888 104.714C99.451 104.992 99.3821 105.29 99.3821 105.608V106.119C99.3821 106.555 99.4573 106.924 99.6076 107.228C99.7604 107.528 99.9721 107.757 100.243 107.915C100.513 108.07 100.828 108.148 101.186 108.148C101.419 108.148 101.629 108.116 101.817 108.05C102.007 107.983 102.171 107.883 102.309 107.75C102.447 107.615 102.553 107.447 102.629 107.246L103.485 107.487C103.395 107.777 103.244 108.033 103.031 108.253C102.818 108.471 102.555 108.642 102.242 108.764C101.928 108.885 101.577 108.945 101.186 108.945ZM105.811 101.129V108.824H104.924V101.129H105.811ZM109.855 108.945C109.299 108.945 108.819 108.822 108.416 108.576C108.015 108.328 107.706 107.983 107.488 107.539C107.273 107.094 107.165 106.575 107.165 105.984C107.165 105.393 107.273 104.872 107.488 104.421C107.706 103.967 108.009 103.614 108.397 103.361C108.788 103.106 109.244 102.978 109.765 102.978C110.066 102.978 110.362 103.028 110.656 103.128C110.949 103.228 111.215 103.391 111.456 103.617C111.696 103.84 111.888 104.135 112.031 104.503C112.174 104.872 112.245 105.325 112.245 105.864V106.239H107.796V105.473H111.343C111.343 105.147 111.278 104.857 111.148 104.601C111.02 104.346 110.837 104.144 110.599 103.996C110.364 103.848 110.086 103.774 109.765 103.774C109.412 103.774 109.106 103.862 108.848 104.037C108.593 104.21 108.396 104.436 108.258 104.714C108.12 104.992 108.052 105.29 108.052 105.608V106.119C108.052 106.555 108.127 106.924 108.277 107.228C108.43 107.528 108.642 107.757 108.912 107.915C109.183 108.07 109.497 108.148 109.855 108.148C110.088 108.148 110.299 108.116 110.486 108.05C110.677 107.983 110.841 107.883 110.979 107.75C111.116 107.615 111.223 107.447 111.298 107.246L112.155 107.487C112.065 107.777 111.913 108.033 111.7 108.253C111.487 108.471 111.224 108.642 110.911 108.764C110.598 108.885 110.246 108.945 109.855 108.945ZM117.682 104.346L116.885 104.571C116.835 104.438 116.761 104.309 116.664 104.184C116.569 104.056 116.438 103.951 116.273 103.868C116.108 103.786 115.896 103.744 115.638 103.744C115.285 103.744 114.99 103.826 114.755 103.989C114.522 104.149 114.406 104.353 114.406 104.601C114.406 104.821 114.486 104.996 114.646 105.123C114.806 105.251 115.057 105.358 115.397 105.443L116.254 105.653C116.77 105.778 117.155 105.97 117.408 106.228C117.661 106.484 117.787 106.813 117.787 107.216C117.787 107.547 117.692 107.843 117.502 108.103C117.314 108.364 117.051 108.569 116.713 108.719C116.374 108.87 115.981 108.945 115.533 108.945C114.944 108.945 114.457 108.817 114.071 108.561C113.685 108.306 113.441 107.933 113.338 107.442L114.18 107.231C114.26 107.542 114.412 107.775 114.635 107.93C114.86 108.085 115.155 108.163 115.518 108.163C115.931 108.163 116.259 108.075 116.502 107.9C116.748 107.722 116.87 107.509 116.87 107.261C116.87 107.061 116.8 106.893 116.66 106.758C116.52 106.62 116.304 106.517 116.014 106.45L115.052 106.224C114.523 106.099 114.135 105.905 113.887 105.642C113.641 105.376 113.519 105.044 113.519 104.646C113.519 104.32 113.61 104.032 113.793 103.782C113.978 103.531 114.23 103.335 114.548 103.192C114.869 103.049 115.232 102.978 115.638 102.978C116.209 102.978 116.657 103.103 116.983 103.354C117.311 103.604 117.544 103.935 117.682 104.346ZM121.467 108.945C120.926 108.945 120.46 108.817 120.069 108.561C119.678 108.306 119.378 107.954 119.167 107.506C118.957 107.057 118.852 106.545 118.852 105.969C118.852 105.383 118.959 104.865 119.175 104.417C119.393 103.966 119.696 103.614 120.084 103.361C120.475 103.106 120.931 102.978 121.452 102.978C121.858 102.978 122.223 103.053 122.549 103.203C122.875 103.354 123.141 103.564 123.349 103.835C123.557 104.105 123.686 104.421 123.736 104.781H122.85C122.782 104.518 122.632 104.285 122.399 104.083C122.168 103.877 121.858 103.774 121.467 103.774C121.121 103.774 120.818 103.865 120.557 104.045C120.299 104.223 120.098 104.475 119.952 104.8C119.81 105.123 119.738 105.503 119.738 105.939C119.738 106.385 119.808 106.773 119.949 107.104C120.092 107.434 120.292 107.691 120.55 107.874C120.81 108.057 121.116 108.148 121.467 108.148C121.697 108.148 121.906 108.108 122.094 108.028C122.282 107.948 122.441 107.832 122.571 107.682C122.702 107.532 122.794 107.352 122.85 107.141H123.736C123.686 107.482 123.562 107.789 123.364 108.062C123.169 108.332 122.91 108.548 122.586 108.708C122.266 108.866 121.893 108.945 121.467 108.945ZM127.377 108.945C126.856 108.945 126.399 108.821 126.006 108.573C125.615 108.325 125.309 107.978 125.089 107.532C124.871 107.086 124.762 106.565 124.762 105.969C124.762 105.368 124.871 104.843 125.089 104.394C125.309 103.946 125.615 103.598 126.006 103.35C126.399 103.102 126.856 102.978 127.377 102.978C127.898 102.978 128.354 103.102 128.745 103.35C129.138 103.598 129.444 103.946 129.662 104.394C129.882 104.843 129.993 105.368 129.993 105.969C129.993 106.565 129.882 107.086 129.662 107.532C129.444 107.978 129.138 108.325 128.745 108.573C128.354 108.821 127.898 108.945 127.377 108.945ZM127.377 108.148C127.773 108.148 128.099 108.047 128.354 107.844C128.61 107.641 128.799 107.374 128.922 107.043C129.044 106.713 129.106 106.355 129.106 105.969C129.106 105.583 129.044 105.224 128.922 104.89C128.799 104.557 128.61 104.288 128.354 104.083C128.099 103.877 127.773 103.774 127.377 103.774C126.982 103.774 126.656 103.877 126.4 104.083C126.145 104.288 125.956 104.557 125.833 104.89C125.71 105.224 125.649 105.583 125.649 105.969C125.649 106.355 125.71 106.713 125.833 107.043C125.956 107.374 126.145 107.641 126.4 107.844C126.656 108.047 126.982 108.148 127.377 108.148ZM131.346 110.989V103.053H132.203V103.97H132.308C132.373 103.87 132.463 103.742 132.579 103.587C132.696 103.429 132.864 103.288 133.082 103.166C133.303 103.04 133.601 102.978 133.976 102.978C134.462 102.978 134.891 103.099 135.261 103.342C135.632 103.585 135.922 103.93 136.129 104.376C136.337 104.821 136.441 105.348 136.441 105.954C136.441 106.565 136.337 107.095 136.129 107.543C135.922 107.989 135.633 108.335 135.265 108.58C134.897 108.823 134.472 108.945 133.991 108.945C133.621 108.945 133.324 108.883 133.101 108.761C132.878 108.635 132.706 108.494 132.586 108.336C132.466 108.176 132.373 108.043 132.308 107.938H132.233V110.989H131.346ZM132.218 105.939C132.218 106.375 132.282 106.759 132.41 107.092C132.537 107.423 132.724 107.682 132.969 107.87C133.215 108.055 133.515 108.148 133.871 108.148C134.242 108.148 134.551 108.05 134.799 107.855C135.05 107.657 135.238 107.392 135.363 107.058C135.491 106.723 135.555 106.35 135.555 105.939C135.555 105.533 135.492 105.167 135.367 104.842C135.244 104.513 135.057 104.254 134.807 104.064C134.559 103.871 134.247 103.774 133.871 103.774C133.51 103.774 133.207 103.866 132.962 104.049C132.716 104.229 132.531 104.482 132.406 104.808C132.28 105.131 132.218 105.508 132.218 105.939ZM140.214 108.945C139.658 108.945 139.178 108.822 138.775 108.576C138.374 108.328 138.065 107.983 137.847 107.539C137.631 107.094 137.523 106.575 137.523 105.984C137.523 105.393 137.631 104.872 137.847 104.421C138.065 103.967 138.368 103.614 138.756 103.361C139.147 103.106 139.603 102.978 140.124 102.978C140.424 102.978 140.721 103.028 141.014 103.128C141.307 103.228 141.574 103.391 141.814 103.617C142.055 103.84 142.247 104.135 142.389 104.503C142.532 104.872 142.604 105.325 142.604 105.864V106.239H138.155V105.473H141.702C141.702 105.147 141.637 104.857 141.506 104.601C141.379 104.346 141.196 104.144 140.958 103.996C140.722 103.848 140.444 103.774 140.124 103.774C139.77 103.774 139.465 103.862 139.207 104.037C138.951 104.21 138.755 104.436 138.617 104.714C138.479 104.992 138.41 105.29 138.41 105.608V106.119C138.41 106.555 138.485 106.924 138.636 107.228C138.788 107.528 139 107.757 139.271 107.915C139.541 108.07 139.856 108.148 140.214 108.148C140.447 108.148 140.657 108.116 140.845 108.05C141.035 107.983 141.2 107.883 141.337 107.75C141.475 107.615 141.582 107.447 141.657 107.246L142.513 107.487C142.423 107.777 142.272 108.033 142.059 108.253C141.846 108.471 141.583 108.642 141.27 108.764C140.957 108.885 140.605 108.945 140.214 108.945ZM148.041 104.346L147.244 104.571C147.194 104.438 147.12 104.309 147.022 104.184C146.927 104.056 146.797 103.951 146.632 103.868C146.466 103.786 146.255 103.744 145.997 103.744C145.643 103.744 145.349 103.826 145.114 103.989C144.881 104.149 144.764 104.353 144.764 104.601C144.764 104.821 144.844 104.996 145.005 105.123C145.165 105.251 145.415 105.358 145.756 105.443L146.613 105.653C147.129 105.778 147.513 105.97 147.766 106.228C148.019 106.484 148.146 106.813 148.146 107.216C148.146 107.547 148.051 107.843 147.86 108.103C147.672 108.364 147.409 108.569 147.071 108.719C146.733 108.87 146.34 108.945 145.891 108.945C145.303 108.945 144.815 108.817 144.43 108.561C144.044 108.306 143.8 107.933 143.697 107.442L144.539 107.231C144.619 107.542 144.77 107.775 144.993 107.93C145.219 108.085 145.513 108.163 145.876 108.163C146.29 108.163 146.618 108.075 146.861 107.9C147.106 107.722 147.229 107.509 147.229 107.261C147.229 107.061 147.159 106.893 147.019 106.758C146.878 106.62 146.663 106.517 146.372 106.45L145.41 106.224C144.882 106.099 144.494 105.905 144.246 105.642C144 105.376 143.877 105.044 143.877 104.646C143.877 104.32 143.969 104.032 144.152 103.782C144.337 103.531 144.589 103.335 144.907 103.192C145.228 103.049 145.591 102.978 145.997 102.978C146.568 102.978 147.016 103.103 147.342 103.354C147.67 103.604 147.903 103.935 148.041 104.346ZM155.147 101.129V108.824H154.215V102.106H154.17L152.291 103.354V102.407L154.215 101.129H155.147ZM159.87 108.93C159.304 108.93 158.822 108.776 158.424 108.468C158.025 108.157 157.721 107.707 157.51 107.119C157.3 106.527 157.195 105.813 157.195 104.977C157.195 104.145 157.3 103.435 157.51 102.846C157.723 102.255 158.029 101.804 158.427 101.494C158.828 101.18 159.309 101.024 159.87 101.024C160.431 101.024 160.911 101.18 161.309 101.494C161.71 101.804 162.016 102.255 162.226 102.846C162.439 103.435 162.545 104.145 162.545 104.977C162.545 105.813 162.44 106.527 162.23 107.119C162.019 107.707 161.715 108.157 161.317 108.468C160.918 108.776 160.436 108.93 159.87 108.93ZM159.87 108.103C160.431 108.103 160.867 107.832 161.178 107.291C161.488 106.75 161.644 105.979 161.644 104.977C161.644 104.31 161.572 103.743 161.43 103.275C161.289 102.806 161.086 102.449 160.821 102.204C160.558 101.958 160.241 101.836 159.87 101.836C159.314 101.836 158.879 102.11 158.566 102.658C158.253 103.205 158.097 103.977 158.097 104.977C158.097 105.643 158.167 106.209 158.307 106.675C158.447 107.141 158.649 107.496 158.912 107.739C159.178 107.982 159.497 108.103 159.87 108.103ZM166.679 101.129V108.824H165.747V102.106H165.702L163.823 103.354V102.407L165.747 101.129H166.679Z" fill="#12141D"/>
<path opacity="0.7" d="M282.673 109.722V102.508H283.135V109.722H282.673ZM284.228 104.672C284.194 104.387 284.057 104.165 283.817 104.007C283.576 103.849 283.281 103.77 282.932 103.77C282.676 103.77 282.453 103.812 282.261 103.894C282.072 103.977 281.923 104.091 281.816 104.235C281.711 104.38 281.658 104.544 281.658 104.728C281.658 104.883 281.695 105.015 281.768 105.126C281.843 105.235 281.939 105.326 282.056 105.399C282.172 105.471 282.294 105.53 282.422 105.577C282.55 105.622 282.667 105.658 282.774 105.687L283.36 105.844C283.51 105.884 283.678 105.938 283.862 106.008C284.048 106.077 284.225 106.172 284.394 106.292C284.565 106.411 284.706 106.563 284.817 106.749C284.928 106.935 284.983 107.163 284.983 107.434C284.983 107.745 284.902 108.027 284.738 108.279C284.577 108.531 284.34 108.731 284.028 108.879C283.718 109.027 283.341 109.102 282.898 109.102C282.485 109.102 282.127 109.035 281.825 108.902C281.524 108.768 281.287 108.582 281.114 108.344C280.943 108.105 280.847 107.828 280.824 107.512H281.546C281.564 107.73 281.638 107.911 281.765 108.053C281.895 108.194 282.058 108.3 282.256 108.369C282.455 108.437 282.669 108.471 282.898 108.471C283.165 108.471 283.404 108.427 283.617 108.341C283.829 108.253 283.997 108.13 284.121 107.975C284.245 107.817 284.307 107.633 284.307 107.422C284.307 107.231 284.253 107.075 284.146 106.955C284.039 106.834 283.898 106.737 283.724 106.661C283.549 106.586 283.36 106.521 283.157 106.464L282.447 106.261C281.996 106.132 281.639 105.947 281.376 105.706C281.113 105.466 280.982 105.151 280.982 104.762C280.982 104.439 281.069 104.157 281.244 103.917C281.421 103.675 281.657 103.487 281.954 103.353C282.253 103.218 282.586 103.151 282.954 103.151C283.326 103.151 283.657 103.217 283.946 103.351C284.236 103.482 284.465 103.662 284.634 103.892C284.805 104.121 284.895 104.381 284.904 104.672H284.228ZM286.031 109V108.493L287.936 106.408C288.159 106.164 288.343 105.951 288.488 105.771C288.632 105.589 288.74 105.418 288.809 105.258C288.88 105.097 288.916 104.928 288.916 104.751C288.916 104.548 288.867 104.373 288.77 104.224C288.674 104.076 288.542 103.961 288.375 103.88C288.208 103.8 288.02 103.759 287.812 103.759C287.59 103.759 287.396 103.805 287.231 103.897C287.068 103.987 286.941 104.114 286.851 104.278C286.762 104.441 286.718 104.633 286.718 104.852H286.053C286.053 104.514 286.131 104.218 286.287 103.962C286.443 103.707 286.655 103.507 286.924 103.365C287.194 103.222 287.498 103.151 287.834 103.151C288.172 103.151 288.472 103.222 288.733 103.365C288.994 103.507 289.199 103.7 289.347 103.942C289.496 104.185 289.57 104.454 289.57 104.751C289.57 104.963 289.531 105.171 289.454 105.374C289.379 105.575 289.248 105.799 289.06 106.047C288.874 106.293 288.616 106.594 288.285 106.949L286.989 108.335V108.38H289.671V109H286.031ZM292.717 109.079C292.293 109.079 291.931 108.964 291.632 108.733C291.334 108.5 291.106 108.162 290.948 107.721C290.79 107.278 290.711 106.742 290.711 106.115C290.711 105.491 290.79 104.959 290.948 104.517C291.107 104.074 291.337 103.736 291.635 103.503C291.936 103.268 292.297 103.151 292.717 103.151C293.138 103.151 293.498 103.268 293.797 103.503C294.097 103.736 294.326 104.074 294.484 104.517C294.644 104.959 294.724 105.491 294.724 106.115C294.724 106.742 294.645 107.278 294.487 107.721C294.329 108.162 294.101 108.5 293.802 108.733C293.503 108.964 293.142 109.079 292.717 109.079ZM292.717 108.459C293.138 108.459 293.465 108.256 293.698 107.851C293.931 107.445 294.047 106.866 294.047 106.115C294.047 105.615 293.994 105.19 293.887 104.838C293.781 104.487 293.629 104.219 293.43 104.035C293.233 103.851 292.995 103.759 292.717 103.759C292.3 103.759 291.974 103.965 291.74 104.376C291.505 104.786 291.387 105.365 291.387 106.115C291.387 106.615 291.44 107.039 291.545 107.388C291.65 107.738 291.802 108.004 291.999 108.186C292.198 108.368 292.437 108.459 292.717 108.459ZM295.659 107.817V107.242L298.195 103.229H298.612V104.12H298.33L296.414 107.152V107.197H299.829V107.817H295.659ZM298.375 109V107.642V107.374V103.229H299.04V109H298.375ZM301.11 109.045C300.971 109.045 300.852 108.996 300.752 108.896C300.653 108.796 300.603 108.677 300.603 108.538C300.603 108.399 300.653 108.28 300.752 108.18C300.852 108.081 300.971 108.031 301.11 108.031C301.249 108.031 301.368 108.081 301.468 108.18C301.567 108.28 301.617 108.399 301.617 108.538C301.617 108.63 301.594 108.715 301.547 108.792C301.502 108.869 301.441 108.931 301.364 108.978C301.289 109.023 301.204 109.045 301.11 109.045ZM304.514 109.079C304.277 109.075 304.041 109.03 303.804 108.944C303.567 108.857 303.351 108.712 303.156 108.507C302.96 108.3 302.804 108.022 302.685 107.67C302.567 107.317 302.508 106.874 302.508 106.34C302.508 105.829 302.556 105.377 302.651 104.982C302.747 104.586 302.886 104.252 303.068 103.982C303.251 103.709 303.47 103.503 303.728 103.362C303.987 103.221 304.279 103.151 304.604 103.151C304.927 103.151 305.215 103.215 305.466 103.345C305.72 103.473 305.927 103.651 306.086 103.88C306.246 104.11 306.349 104.373 306.396 104.672H305.709C305.645 104.413 305.521 104.198 305.337 104.027C305.153 103.856 304.908 103.77 304.604 103.77C304.157 103.77 303.805 103.965 303.547 104.354C303.292 104.743 303.163 105.288 303.161 105.991H303.206C303.312 105.831 303.437 105.695 303.581 105.582C303.728 105.468 303.889 105.379 304.066 105.317C304.242 105.255 304.429 105.224 304.627 105.224C304.957 105.224 305.26 105.307 305.534 105.472C305.808 105.636 306.028 105.862 306.193 106.151C306.359 106.439 306.441 106.769 306.441 107.141C306.441 107.497 306.361 107.824 306.202 108.121C306.042 108.416 305.818 108.651 305.528 108.826C305.241 108.998 304.903 109.083 304.514 109.079ZM304.514 108.459C304.751 108.459 304.963 108.4 305.151 108.282C305.34 108.163 305.49 108.005 305.599 107.806C305.71 107.606 305.765 107.385 305.765 107.141C305.765 106.902 305.711 106.685 305.604 106.49C305.499 106.292 305.354 106.136 305.168 106.019C304.984 105.903 304.773 105.844 304.536 105.844C304.358 105.844 304.192 105.88 304.038 105.951C303.884 106.021 303.748 106.117 303.632 106.239C303.517 106.361 303.427 106.501 303.361 106.659C303.296 106.815 303.263 106.979 303.263 107.152C303.263 107.381 303.316 107.595 303.423 107.794C303.532 107.993 303.681 108.154 303.869 108.276C304.058 108.398 304.273 108.459 304.514 108.459ZM309.432 109.079C309.007 109.079 308.645 108.964 308.347 108.733C308.048 108.5 307.82 108.162 307.662 107.721C307.504 107.278 307.425 106.742 307.425 106.115C307.425 105.491 307.504 104.959 307.662 104.517C307.822 104.074 308.051 103.736 308.35 103.503C308.65 103.268 309.011 103.151 309.432 103.151C309.852 103.151 310.212 103.268 310.511 103.503C310.811 103.736 311.041 104.074 311.198 104.517C311.358 104.959 311.438 105.491 311.438 106.115C311.438 106.742 311.359 107.278 311.201 107.721C311.043 108.162 310.815 108.5 310.516 108.733C310.218 108.964 309.856 109.079 309.432 109.079ZM309.432 108.459C309.852 108.459 310.179 108.256 310.412 107.851C310.645 107.445 310.762 106.866 310.762 106.115C310.762 105.615 310.708 105.19 310.601 104.838C310.496 104.487 310.344 104.219 310.145 104.035C309.947 103.851 309.71 103.759 309.432 103.759C309.015 103.759 308.689 103.965 308.454 104.376C308.219 104.786 308.102 105.365 308.102 106.115C308.102 106.615 308.154 107.039 308.259 107.388C308.365 107.738 308.516 108.004 308.713 108.186C308.912 108.368 309.152 108.459 309.432 108.459Z" fill="black"/>
<path fill-rule="evenodd" clip-rule="evenodd" d="M92.0024 119.271C92.0024 118.019 93.0175 117.004 94.2695 117.004H309.644C310.896 117.004 311.911 118.019 311.911 119.271C311.911 120.523 310.896 121.538 309.644 121.538H94.2695C93.0175 121.538 92.0024 120.523 92.0024 119.271Z" fill="#F55B5D" fill-opacity="0.1"/>
<path fill-rule="evenodd" clip-rule="evenodd" d="M92.0024 119.271C92.0024 118.019 93.0175 117.004 94.2695 117.004H214.426C215.678 117.004 216.693 118.019 216.693 119.271C216.693 120.523 215.678 121.538 214.426 121.538H94.2695C93.0175 121.538 92.0024 120.523 92.0024 119.271Z" fill="#F23936"/>
</g>
<g clip-path="url(#clip1_1_3428)">
<path d="M92.9343 151.898V144.203H95.5345C96.1357 144.203 96.6292 144.306 97.0149 144.511C97.4007 144.714 97.6863 144.993 97.8716 145.349C98.057 145.705 98.1497 146.109 98.1497 146.563C98.1497 147.016 98.057 147.418 97.8716 147.769C97.6863 148.119 97.4019 148.395 97.0187 148.595C96.6354 148.793 96.1457 148.892 95.5495 148.892H93.4453V148.051H95.5194C95.9303 148.051 96.2609 147.99 96.5114 147.87C96.7644 147.75 96.9473 147.58 97.06 147.359C97.1752 147.136 97.2329 146.871 97.2329 146.563C97.2329 146.254 97.1752 145.985 97.06 145.755C96.9448 145.524 96.7607 145.346 96.5077 145.221C96.2547 145.093 95.9202 145.03 95.5044 145.03H93.8662V151.898H92.9343ZM96.5565 148.441L98.4503 151.898H97.3681L95.5044 148.441H96.5565ZM101.281 152.033C100.915 152.033 100.583 151.965 100.285 151.827C99.9868 151.687 99.7501 151.485 99.5747 151.222C99.3994 150.956 99.3117 150.636 99.3117 150.26C99.3117 149.929 99.3768 149.661 99.5071 149.456C99.6373 149.248 99.8114 149.085 100.029 148.967C100.247 148.85 100.488 148.762 100.751 148.704C101.016 148.644 101.283 148.597 101.551 148.562C101.902 148.516 102.186 148.483 102.404 148.46C102.625 148.435 102.785 148.394 102.885 148.336C102.988 148.278 103.039 148.178 103.039 148.035V148.005C103.039 147.635 102.938 147.347 102.735 147.141C102.534 146.936 102.23 146.833 101.822 146.833C101.398 146.833 101.066 146.926 100.826 147.111C100.585 147.297 100.416 147.494 100.319 147.705L99.477 147.404C99.6273 147.054 99.8277 146.78 100.078 146.585C100.331 146.387 100.607 146.249 100.905 146.172C101.205 146.092 101.501 146.052 101.792 146.052C101.977 146.052 102.19 146.074 102.43 146.119C102.673 146.162 102.908 146.251 103.133 146.386C103.361 146.521 103.55 146.725 103.7 146.998C103.851 147.271 103.926 147.637 103.926 148.096V151.898H103.039V151.117H102.994C102.934 151.242 102.834 151.376 102.693 151.519C102.553 151.661 102.367 151.783 102.134 151.883C101.901 151.983 101.616 152.033 101.281 152.033ZM101.416 151.237C101.767 151.237 102.062 151.168 102.303 151.03C102.546 150.892 102.728 150.715 102.851 150.497C102.976 150.279 103.039 150.05 103.039 149.809V148.997C103.002 149.043 102.919 149.084 102.791 149.121C102.666 149.156 102.521 149.188 102.355 149.215C102.192 149.24 102.033 149.263 101.878 149.283C101.725 149.301 101.601 149.316 101.506 149.328C101.276 149.358 101.06 149.407 100.86 149.475C100.662 149.54 100.502 149.639 100.379 149.771C100.259 149.902 100.198 150.08 100.198 150.305C100.198 150.613 100.312 150.846 100.54 151.004C100.771 151.159 101.063 151.237 101.416 151.237ZM107.724 152.018C107.243 152.018 106.818 151.897 106.45 151.654C106.082 151.408 105.794 151.063 105.586 150.617C105.378 150.168 105.274 149.639 105.274 149.027C105.274 148.421 105.378 147.895 105.586 147.449C105.794 147.003 106.083 146.659 106.454 146.416C106.824 146.173 107.253 146.052 107.739 146.052C108.115 146.052 108.411 146.114 108.629 146.239C108.85 146.362 109.018 146.502 109.133 146.66C109.251 146.816 109.342 146.943 109.407 147.044H109.482V144.203H110.369V151.898H109.512V151.011H109.407C109.342 151.117 109.249 151.249 109.129 151.41C109.009 151.568 108.837 151.709 108.614 151.834C108.391 151.957 108.095 152.018 107.724 152.018ZM107.844 151.222C108.2 151.222 108.5 151.129 108.746 150.944C108.991 150.756 109.178 150.497 109.306 150.166C109.433 149.833 109.497 149.448 109.497 149.012C109.497 148.582 109.435 148.205 109.309 147.881C109.184 147.556 108.999 147.303 108.753 147.122C108.508 146.94 108.205 146.848 107.844 146.848C107.468 146.848 107.155 146.945 106.905 147.137C106.657 147.328 106.47 147.587 106.345 147.915C106.222 148.241 106.161 148.607 106.161 149.012C106.161 149.423 106.223 149.797 106.349 150.132C106.476 150.465 106.664 150.731 106.912 150.929C107.163 151.124 107.473 151.222 107.844 151.222ZM112.116 151.898V146.127H113.003V151.898H112.116ZM112.567 145.165C112.394 145.165 112.245 145.106 112.12 144.988C111.997 144.87 111.936 144.729 111.936 144.564C111.936 144.398 111.997 144.257 112.12 144.139C112.245 144.021 112.394 143.962 112.567 143.962C112.74 143.962 112.888 144.021 113.011 144.139C113.136 144.257 113.198 144.398 113.198 144.564C113.198 144.729 113.136 144.87 113.011 144.988C112.888 145.106 112.74 145.165 112.567 145.165ZM116.972 152.018C116.451 152.018 115.994 151.894 115.6 151.646C115.21 151.398 114.904 151.052 114.684 150.606C114.466 150.16 114.357 149.639 114.357 149.043C114.357 148.441 114.466 147.917 114.684 147.468C114.904 147.02 115.21 146.672 115.6 146.424C115.994 146.176 116.451 146.052 116.972 146.052C117.493 146.052 117.949 146.176 118.34 146.424C118.733 146.672 119.038 147.02 119.256 147.468C119.477 147.917 119.587 148.441 119.587 149.043C119.587 149.639 119.477 150.16 119.256 150.606C119.038 151.052 118.733 151.398 118.34 151.646C117.949 151.894 117.493 152.018 116.972 152.018ZM116.972 151.222C117.368 151.222 117.693 151.12 117.949 150.917C118.204 150.715 118.393 150.448 118.516 150.117C118.639 149.786 118.7 149.428 118.7 149.043C118.7 148.657 118.639 148.297 118.516 147.964C118.393 147.631 118.204 147.362 117.949 147.156C117.693 146.951 117.368 146.848 116.972 146.848C116.576 146.848 116.25 146.951 115.995 147.156C115.739 147.362 115.55 147.631 115.428 147.964C115.305 148.297 115.243 148.657 115.243 149.043C115.243 149.428 115.305 149.786 115.428 150.117C115.55 150.448 115.739 150.715 115.995 150.917C116.25 151.12 116.576 151.222 116.972 151.222ZM124.353 151.898H123.376L126.201 144.203H127.163L129.989 151.898H129.012L126.712 145.42H126.652L124.353 151.898ZM124.713 148.892H128.651V149.719H124.713V148.892ZM135.155 147.419L134.359 147.645C134.309 147.512 134.235 147.383 134.137 147.258C134.042 147.13 133.912 147.025 133.746 146.942C133.581 146.859 133.369 146.818 133.111 146.818C132.758 146.818 132.464 146.899 132.228 147.062C131.995 147.223 131.879 147.427 131.879 147.675C131.879 147.895 131.959 148.069 132.119 148.197C132.28 148.325 132.53 148.431 132.871 148.516L133.727 148.727C134.243 148.852 134.628 149.044 134.881 149.302C135.134 149.557 135.26 149.887 135.26 150.29C135.26 150.621 135.165 150.916 134.975 151.177C134.787 151.437 134.524 151.643 134.186 151.793C133.848 151.943 133.454 152.018 133.006 152.018C132.417 152.018 131.93 151.891 131.544 151.635C131.159 151.38 130.914 151.006 130.812 150.515L131.653 150.305C131.733 150.616 131.885 150.849 132.108 151.004C132.333 151.159 132.628 151.237 132.991 151.237C133.404 151.237 133.732 151.149 133.975 150.974C134.221 150.796 134.344 150.583 134.344 150.335C134.344 150.135 134.274 149.967 134.133 149.832C133.993 149.694 133.778 149.591 133.487 149.523L132.525 149.298C131.996 149.173 131.608 148.979 131.36 148.716C131.115 148.45 130.992 148.118 130.992 147.72C130.992 147.394 131.083 147.106 131.266 146.856C131.452 146.605 131.703 146.409 132.022 146.266C132.342 146.123 132.705 146.052 133.111 146.052C133.682 146.052 134.131 146.177 134.456 146.427C134.785 146.678 135.018 147.008 135.155 147.419ZM139.105 146.127V146.878H136.114V146.127H139.105ZM136.986 144.744H137.873V150.245C137.873 150.495 137.909 150.683 137.982 150.809C138.057 150.931 138.152 151.014 138.267 151.057C138.385 151.097 138.509 151.117 138.639 151.117C138.737 151.117 138.817 151.112 138.88 151.102C138.943 151.089 138.993 151.079 139.03 151.072L139.211 151.868C139.15 151.891 139.067 151.913 138.959 151.936C138.851 151.961 138.715 151.973 138.549 151.973C138.299 151.973 138.053 151.919 137.813 151.812C137.575 151.704 137.377 151.54 137.219 151.32C137.064 151.099 136.986 150.821 136.986 150.485V144.744ZM140.439 151.898V146.127H141.296V146.998H141.356C141.461 146.713 141.652 146.481 141.927 146.303C142.203 146.125 142.513 146.037 142.859 146.037C142.924 146.037 143.006 146.038 143.103 146.04C143.201 146.043 143.275 146.047 143.325 146.052V146.953C143.295 146.946 143.226 146.935 143.118 146.92C143.013 146.902 142.902 146.893 142.784 146.893C142.503 146.893 142.253 146.952 142.032 147.07C141.814 147.185 141.642 147.345 141.514 147.551C141.389 147.754 141.326 147.985 141.326 148.246V151.898H140.439ZM146.545 152.018C146.024 152.018 145.567 151.894 145.174 151.646C144.783 151.398 144.477 151.052 144.257 150.606C144.039 150.16 143.93 149.639 143.93 149.043C143.93 148.441 144.039 147.917 144.257 147.468C144.477 147.02 144.783 146.672 145.174 146.424C145.567 146.176 146.024 146.052 146.545 146.052C147.066 146.052 147.522 146.176 147.913 146.424C148.306 146.672 148.612 147.02 148.83 147.468C149.05 147.917 149.16 148.441 149.16 149.043C149.16 149.639 149.05 150.16 148.83 150.606C148.612 151.052 148.306 151.398 147.913 151.646C147.522 151.894 147.066 152.018 146.545 152.018ZM146.545 151.222C146.941 151.222 147.267 151.12 147.522 150.917C147.778 150.715 147.967 150.448 148.089 150.117C148.212 149.786 148.274 149.428 148.274 149.043C148.274 148.657 148.212 148.297 148.089 147.964C147.967 147.631 147.778 147.362 147.522 147.156C147.267 146.951 146.941 146.848 146.545 146.848C146.149 146.848 145.824 146.951 145.568 147.156C145.313 147.362 145.124 147.631 145.001 147.964C144.878 148.297 144.817 148.657 144.817 149.043C144.817 149.428 144.878 149.786 145.001 150.117C145.124 150.448 145.313 150.715 145.568 150.917C145.824 151.12 146.149 151.222 146.545 151.222ZM151.401 148.426V151.898H150.514V146.127H151.371V147.028H151.446C151.581 146.735 151.787 146.5 152.062 146.322C152.338 146.142 152.693 146.052 153.129 146.052C153.52 146.052 153.862 146.132 154.155 146.292C154.448 146.45 154.676 146.69 154.839 147.013C155.002 147.334 155.083 147.74 155.083 148.231V151.898H154.196V148.291C154.196 147.838 154.079 147.484 153.843 147.231C153.608 146.976 153.285 146.848 152.874 146.848C152.591 146.848 152.338 146.91 152.115 147.032C151.894 147.155 151.72 147.334 151.592 147.57C151.465 147.805 151.401 148.091 151.401 148.426ZM159.048 152.018C158.527 152.018 158.07 151.894 157.677 151.646C157.286 151.398 156.98 151.052 156.76 150.606C156.542 150.16 156.433 149.639 156.433 149.043C156.433 148.441 156.542 147.917 156.76 147.468C156.98 147.02 157.286 146.672 157.677 146.424C158.07 146.176 158.527 146.052 159.048 146.052C159.569 146.052 160.025 146.176 160.416 146.424C160.809 146.672 161.115 147.02 161.333 147.468C161.553 147.917 161.663 148.441 161.663 149.043C161.663 149.639 161.553 150.16 161.333 150.606C161.115 151.052 160.809 151.398 160.416 151.646C160.025 151.894 159.569 152.018 159.048 152.018ZM159.048 151.222C159.444 151.222 159.77 151.12 160.025 150.917C160.281 150.715 160.47 150.448 160.593 150.117C160.715 149.786 160.777 149.428 160.777 149.043C160.777 148.657 160.715 148.297 160.593 147.964C160.47 147.631 160.281 147.362 160.025 147.156C159.77 146.951 159.444 146.848 159.048 146.848C158.652 146.848 158.327 146.951 158.071 147.156C157.816 147.362 157.627 147.631 157.504 147.964C157.381 148.297 157.32 148.657 157.32 149.043C157.32 149.428 157.381 149.786 157.504 150.117C157.627 150.448 157.816 150.715 158.071 150.917C158.327 151.12 158.652 151.222 159.048 151.222ZM163.017 151.898V146.127H163.874V147.028H163.949C164.069 146.72 164.263 146.481 164.531 146.311C164.799 146.138 165.121 146.052 165.497 146.052C165.878 146.052 166.195 146.138 166.448 146.311C166.703 146.481 166.902 146.72 167.045 147.028H167.105C167.253 146.73 167.475 146.494 167.77 146.318C168.066 146.14 168.42 146.052 168.834 146.052C169.35 146.052 169.772 146.213 170.1 146.536C170.428 146.857 170.592 147.357 170.592 148.035V151.898H169.705V148.035C169.705 147.61 169.589 147.305 169.356 147.122C169.123 146.94 168.849 146.848 168.533 146.848C168.127 146.848 167.813 146.971 167.59 147.216C167.367 147.459 167.255 147.767 167.255 148.141V151.898H166.354V147.945C166.354 147.617 166.247 147.353 166.034 147.152C165.821 146.95 165.547 146.848 165.211 146.848C164.981 146.848 164.766 146.91 164.565 147.032C164.367 147.155 164.207 147.325 164.084 147.543C163.964 147.759 163.904 148.008 163.904 148.291V151.898H163.017ZM172.578 154.063C172.428 154.063 172.294 154.05 172.176 154.025C172.058 154.002 171.977 153.98 171.932 153.957L172.157 153.176C172.373 153.231 172.563 153.251 172.728 153.236C172.894 153.221 173.04 153.147 173.168 153.014C173.298 152.884 173.417 152.672 173.525 152.379L173.69 151.928L171.556 146.127H172.518L174.111 150.726H174.171L175.764 146.127H176.726L174.276 152.74C174.166 153.038 174.03 153.285 173.867 153.48C173.704 153.678 173.515 153.825 173.299 153.92C173.086 154.015 172.846 154.063 172.578 154.063Z" fill="#12141D"/>
<path opacity="0.7" d="M287.462 152.795V145.582H287.925V152.795H287.462ZM289.018 147.746C288.984 147.46 288.847 147.239 288.606 147.081C288.366 146.923 288.071 146.844 287.722 146.844C287.466 146.844 287.243 146.886 287.051 146.968C286.861 147.051 286.713 147.164 286.606 147.309C286.501 147.454 286.448 147.618 286.448 147.802C286.448 147.956 286.485 148.089 286.558 148.2C286.633 148.308 286.729 148.4 286.845 148.473C286.962 148.544 287.084 148.603 287.212 148.65C287.339 148.695 287.457 148.732 287.564 148.76L288.15 148.918C288.3 148.958 288.467 149.012 288.652 149.081C288.837 149.151 289.015 149.246 289.184 149.366C289.355 149.484 289.496 149.637 289.607 149.823C289.718 150.009 289.773 150.237 289.773 150.507C289.773 150.819 289.691 151.101 289.528 151.353C289.366 151.604 289.13 151.804 288.818 151.953C288.508 152.101 288.131 152.175 287.688 152.175C287.275 152.175 286.917 152.109 286.614 151.975C286.314 151.842 286.077 151.656 285.904 151.417C285.733 151.179 285.636 150.902 285.614 150.586H286.335C286.354 150.804 286.427 150.984 286.555 151.127C286.685 151.268 286.848 151.373 287.045 151.443C287.245 151.51 287.459 151.544 287.688 151.544C287.955 151.544 288.194 151.501 288.406 151.415C288.619 151.326 288.787 151.204 288.911 151.048C289.035 150.891 289.097 150.706 289.097 150.496C289.097 150.304 289.043 150.148 288.936 150.028C288.829 149.908 288.688 149.81 288.513 149.735C288.339 149.66 288.15 149.594 287.947 149.538L287.237 149.335C286.786 149.205 286.429 149.02 286.166 148.78C285.903 148.54 285.772 148.225 285.772 147.836C285.772 147.513 285.859 147.231 286.034 146.991C286.21 146.748 286.447 146.561 286.744 146.427C287.043 146.292 287.376 146.224 287.744 146.224C288.116 146.224 288.447 146.291 288.736 146.424C289.025 146.556 289.255 146.736 289.424 146.965C289.595 147.195 289.685 147.455 289.694 147.746H289.018ZM292.669 152.153C292.282 152.153 291.94 152.084 291.643 151.947C291.348 151.808 291.118 151.617 290.953 151.375C290.788 151.131 290.706 150.853 290.708 150.541C290.706 150.297 290.754 150.071 290.851 149.865C290.949 149.656 291.083 149.483 291.252 149.344C291.423 149.203 291.613 149.113 291.824 149.076V149.042C291.547 148.971 291.328 148.816 291.164 148.577C291.001 148.337 290.92 148.063 290.922 147.757C290.92 147.464 290.994 147.202 291.145 146.971C291.295 146.74 291.501 146.558 291.764 146.424C292.029 146.291 292.331 146.224 292.669 146.224C293.003 146.224 293.302 146.291 293.565 146.424C293.828 146.558 294.035 146.74 294.185 146.971C294.337 147.202 294.414 147.464 294.416 147.757C294.414 148.063 294.331 148.337 294.165 148.577C294.002 148.816 293.785 148.971 293.514 149.042V149.076C293.723 149.113 293.911 149.203 294.078 149.344C294.245 149.483 294.378 149.656 294.478 149.865C294.578 150.071 294.628 150.297 294.63 150.541C294.628 150.853 294.544 151.131 294.377 151.375C294.211 151.617 293.981 151.808 293.686 151.947C293.393 152.084 293.054 152.153 292.669 152.153ZM292.669 151.533C292.93 151.533 293.155 151.491 293.345 151.406C293.535 151.322 293.681 151.202 293.785 151.048C293.888 150.894 293.941 150.714 293.943 150.507C293.941 150.289 293.884 150.097 293.774 149.93C293.663 149.762 293.511 149.631 293.32 149.535C293.13 149.439 292.913 149.391 292.669 149.391C292.423 149.391 292.203 149.439 292.01 149.535C291.818 149.631 291.667 149.762 291.556 149.93C291.447 150.097 291.393 150.289 291.395 150.507C291.393 150.714 291.443 150.894 291.545 151.048C291.648 151.202 291.795 151.322 291.987 151.406C292.179 151.491 292.406 151.533 292.669 151.533ZM292.669 148.794C292.876 148.794 293.059 148.753 293.218 148.67C293.38 148.587 293.507 148.472 293.599 148.324C293.691 148.175 293.738 148.001 293.74 147.802C293.738 147.607 293.692 147.437 293.602 147.292C293.511 147.146 293.387 147.033 293.227 146.954C293.067 146.873 292.881 146.833 292.669 146.833C292.453 146.833 292.264 146.873 292.103 146.954C291.941 147.033 291.816 147.146 291.728 147.292C291.64 147.437 291.596 147.607 291.598 147.802C291.596 148.001 291.64 148.175 291.731 148.324C291.823 148.472 291.949 148.587 292.111 148.67C292.273 148.753 292.459 148.794 292.669 148.794ZM297.592 152.153C297.168 152.153 296.806 152.037 296.507 151.806C296.209 151.573 295.981 151.236 295.823 150.795C295.665 150.351 295.586 149.816 295.586 149.189C295.586 148.565 295.665 148.032 295.823 147.591C295.982 147.148 296.212 146.809 296.51 146.576C296.811 146.342 297.172 146.224 297.592 146.224C298.013 146.224 298.373 146.342 298.672 146.576C298.972 146.809 299.201 147.148 299.359 147.591C299.519 148.032 299.599 148.565 299.599 149.189C299.599 149.816 299.52 150.351 299.362 150.795C299.204 151.236 298.976 151.573 298.677 151.806C298.378 152.037 298.017 152.153 297.592 152.153ZM297.592 151.533C298.013 151.533 298.34 151.33 298.573 150.924C298.806 150.519 298.922 149.94 298.922 149.189C298.922 148.689 298.869 148.263 298.762 147.912C298.656 147.561 298.504 147.293 298.305 147.109C298.108 146.925 297.87 146.833 297.592 146.833C297.175 146.833 296.849 147.039 296.615 147.45C296.38 147.86 296.262 148.439 296.262 149.189C296.262 149.688 296.315 150.113 296.42 150.462C296.525 150.812 296.677 151.077 296.874 151.26C297.073 151.442 297.312 151.533 297.592 151.533ZM300.964 152.119C300.825 152.119 300.705 152.069 300.606 151.97C300.506 151.87 300.457 151.751 300.457 151.612C300.457 151.473 300.506 151.354 300.606 151.254C300.705 151.154 300.825 151.105 300.964 151.105C301.103 151.105 301.222 151.154 301.322 151.254C301.421 151.354 301.471 151.473 301.471 151.612C301.471 151.704 301.447 151.788 301.401 151.865C301.355 151.942 301.294 152.004 301.217 152.051C301.142 152.097 301.058 152.119 300.964 152.119ZM304.436 146.224C304.673 146.226 304.909 146.271 305.146 146.36C305.383 146.448 305.599 146.594 305.794 146.799C305.99 147.002 306.146 147.279 306.265 147.63C306.383 147.982 306.442 148.422 306.442 148.952C306.442 149.465 306.393 149.92 306.296 150.319C306.2 150.715 306.061 151.049 305.879 151.322C305.698 151.594 305.479 151.801 305.219 151.942C304.962 152.082 304.671 152.153 304.346 152.153C304.023 152.153 303.734 152.089 303.481 151.961C303.229 151.832 303.022 151.652 302.861 151.423C302.701 151.192 302.599 150.924 302.554 150.62H303.241C303.303 150.885 303.426 151.104 303.61 151.277C303.796 151.447 304.041 151.533 304.346 151.533C304.791 151.533 305.142 151.339 305.4 150.95C305.659 150.561 305.789 150.011 305.789 149.301H305.743C305.638 149.459 305.513 149.595 305.369 149.71C305.224 149.824 305.063 149.913 304.887 149.975C304.71 150.037 304.522 150.068 304.323 150.068C303.993 150.068 303.689 149.986 303.413 149.823C303.139 149.657 302.919 149.431 302.754 149.143C302.59 148.854 302.509 148.524 302.509 148.152C302.509 147.798 302.588 147.475 302.745 147.182C302.905 146.887 303.129 146.653 303.416 146.478C303.705 146.303 304.045 146.219 304.436 146.224ZM304.436 146.844C304.199 146.844 303.986 146.903 303.796 147.022C303.608 147.138 303.459 147.296 303.348 147.495C303.239 147.692 303.185 147.911 303.185 148.152C303.185 148.392 303.237 148.611 303.343 148.808C303.45 149.004 303.595 149.159 303.779 149.276C303.965 149.391 304.177 149.448 304.413 149.448C304.592 149.448 304.758 149.413 304.912 149.344C305.066 149.272 305.201 149.175 305.315 149.053C305.432 148.929 305.523 148.789 305.588 148.633C305.654 148.476 305.687 148.311 305.687 148.14C305.687 147.915 305.633 147.704 305.524 147.506C305.417 147.309 305.268 147.149 305.078 147.027C304.891 146.905 304.676 146.844 304.436 146.844ZM309.433 152.153C309.008 152.153 308.646 152.037 308.348 151.806C308.049 151.573 307.821 151.236 307.663 150.795C307.505 150.351 307.426 149.816 307.426 149.189C307.426 148.565 307.505 148.032 307.663 147.591C307.823 147.148 308.052 146.809 308.351 146.576C308.651 146.342 309.012 146.224 309.433 146.224C309.853 146.224 310.213 146.342 310.512 146.576C310.812 146.809 311.042 147.148 311.199 147.591C311.359 148.032 311.439 148.565 311.439 149.189C311.439 149.816 311.36 150.351 311.202 150.795C311.044 151.236 310.816 151.573 310.517 151.806C310.219 152.037 309.857 152.153 309.433 152.153ZM309.433 151.533C309.853 151.533 310.18 151.33 310.413 150.924C310.646 150.519 310.763 149.94 310.763 149.189C310.763 148.689 310.709 148.263 310.602 147.912C310.497 147.561 310.345 147.293 310.145 147.109C309.948 146.925 309.711 146.833 309.433 146.833C309.016 146.833 308.69 147.039 308.455 147.45C308.22 147.86 308.103 148.439 308.103 149.189C308.103 149.688 308.155 150.113 308.26 150.462C308.366 150.812 308.517 151.077 308.714 151.26C308.913 151.442 309.153 151.533 309.433 151.533Z" fill="black"/>
<path fill-rule="evenodd" clip-rule="evenodd" d="M92.0024 162.345C92.0024 161.093 93.0175 160.078 94.2695 160.078H309.644C310.896 160.078 311.911 161.093 311.911 162.345C311.911 163.597 310.896 164.612 309.644 164.612H94.2695C93.0175 164.612 92.0024 163.597 92.0024 162.345Z" fill="#27B3AA" fill-opacity="0.1"/>
<path fill-rule="evenodd" clip-rule="evenodd" d="M92.0024 162.345C92.0024 161.093 93.0175 160.078 94.2695 160.078H237.664C238.916 160.078 239.931 161.093 239.931 162.345C239.931 163.597 238.916 164.612 237.664 164.612H94.2696C93.0175 164.612 92.0024 163.597 92.0024 162.345Z" fill="#14B082"/>
</g>
<g clip-path="url(#clip2_1_3428)">
<path d="M92.9343 194.973V187.278H95.6247C96.1607 187.278 96.6029 187.371 96.9511 187.556C97.2992 187.739 97.5585 187.986 97.7289 188.296C97.8992 188.604 97.9844 188.946 97.9844 189.322C97.9844 189.653 97.9255 189.926 97.8078 190.141C97.6925 190.357 97.5397 190.527 97.3493 190.652C97.1615 190.778 96.9573 190.87 96.7369 190.93V191.005C96.9723 191.021 97.2091 191.103 97.447 191.253C97.685 191.404 97.8842 191.619 98.0445 191.9C98.2048 192.18 98.285 192.524 98.285 192.929C98.285 193.315 98.1973 193.662 98.0219 193.97C97.8466 194.278 97.5698 194.522 97.1915 194.703C96.8133 194.883 96.321 194.973 95.7148 194.973H92.9343ZM93.8662 194.147H95.7148C96.3236 194.147 96.7557 194.029 97.0112 193.794C97.2692 193.556 97.3982 193.267 97.3982 192.929C97.3982 192.669 97.3318 192.428 97.199 192.208C97.0663 191.985 96.8772 191.807 96.6317 191.674C96.3862 191.539 96.0956 191.471 95.7599 191.471H93.8662V194.147ZM93.8662 190.66H95.5946C95.8752 190.66 96.1282 190.605 96.3536 190.494C96.5816 190.384 96.7619 190.229 96.8947 190.029C97.03 189.828 97.0976 189.593 97.0976 189.322C97.0976 188.984 96.9799 188.697 96.7444 188.462C96.5089 188.224 96.1357 188.105 95.6247 188.105H93.8662V190.66ZM102.116 195.094C101.56 195.094 101.08 194.971 100.677 194.725C100.276 194.477 99.9664 194.132 99.7485 193.688C99.5331 193.242 99.4254 192.724 99.4254 192.133C99.4254 191.542 99.5331 191.021 99.7485 190.57C99.9664 190.116 100.27 189.763 100.658 189.51C101.049 189.254 101.504 189.127 102.026 189.127C102.326 189.127 102.623 189.177 102.916 189.277C103.209 189.377 103.476 189.54 103.716 189.766C103.957 189.988 104.149 190.284 104.291 190.652C104.434 191.021 104.505 191.474 104.505 192.012V192.388H100.057V191.622H103.604C103.604 191.296 103.539 191.005 103.408 190.75C103.281 190.494 103.098 190.293 102.86 190.145C102.624 189.997 102.346 189.923 102.026 189.923C101.672 189.923 101.367 190.011 101.109 190.186C100.853 190.359 100.657 190.585 100.519 190.863C100.381 191.141 100.312 191.439 100.312 191.757V192.268C100.312 192.704 100.387 193.073 100.538 193.376C100.69 193.677 100.902 193.906 101.173 194.064C101.443 194.219 101.758 194.297 102.116 194.297C102.349 194.297 102.559 194.264 102.747 194.199C102.937 194.132 103.101 194.032 103.239 193.899C103.377 193.763 103.483 193.596 103.559 193.395L104.415 193.636C104.325 193.926 104.174 194.182 103.961 194.402C103.748 194.62 103.485 194.791 103.172 194.913C102.858 195.034 102.506 195.094 102.116 195.094ZM106.25 197.138C106.1 197.138 105.966 197.125 105.848 197.1C105.73 197.078 105.649 197.055 105.604 197.032L105.829 196.251C106.044 196.306 106.235 196.326 106.4 196.311C106.566 196.296 106.712 196.222 106.84 196.089C106.97 195.959 107.089 195.747 107.197 195.454L107.362 195.003L105.228 189.202H106.19L107.783 193.801H107.843L109.436 189.202H110.398L107.948 195.815C107.838 196.113 107.702 196.36 107.539 196.555C107.376 196.753 107.187 196.9 106.971 196.995C106.758 197.09 106.518 197.138 106.25 197.138ZM113.707 195.094C113.186 195.094 112.728 194.97 112.335 194.722C111.944 194.474 111.639 194.127 111.418 193.681C111.2 193.235 111.091 192.714 111.091 192.118C111.091 191.517 111.2 190.992 111.418 190.543C111.639 190.095 111.944 189.747 112.335 189.499C112.728 189.251 113.186 189.127 113.707 189.127C114.228 189.127 114.684 189.251 115.074 189.499C115.468 189.747 115.773 190.095 115.991 190.543C116.212 190.992 116.322 191.517 116.322 192.118C116.322 192.714 116.212 193.235 115.991 193.681C115.773 194.127 115.468 194.474 115.074 194.722C114.684 194.97 114.228 195.094 113.707 195.094ZM113.707 194.297C114.102 194.297 114.428 194.196 114.684 193.993C114.939 193.79 115.128 193.523 115.251 193.192C115.374 192.862 115.435 192.503 115.435 192.118C115.435 191.732 115.374 191.372 115.251 191.039C115.128 190.706 114.939 190.437 114.684 190.231C114.428 190.026 114.102 189.923 113.707 189.923C113.311 189.923 112.985 190.026 112.73 190.231C112.474 190.437 112.285 190.706 112.162 191.039C112.04 191.372 111.978 191.732 111.978 192.118C111.978 192.503 112.04 192.862 112.162 193.192C112.285 193.523 112.474 193.79 112.73 193.993C112.985 194.196 113.311 194.297 113.707 194.297ZM118.562 191.501V194.973H117.675V189.202H118.532V190.104H118.607C118.743 189.811 118.948 189.575 119.224 189.397C119.499 189.217 119.855 189.127 120.291 189.127C120.681 189.127 121.023 189.207 121.316 189.367C121.61 189.525 121.838 189.766 122 190.089C122.163 190.409 122.245 190.815 122.245 191.306V194.973H121.358V191.366C121.358 190.913 121.24 190.56 121.005 190.307C120.769 190.051 120.446 189.923 120.035 189.923C119.752 189.923 119.499 189.985 119.276 190.107C119.056 190.23 118.882 190.409 118.754 190.645C118.626 190.88 118.562 191.166 118.562 191.501ZM126.044 195.094C125.563 195.094 125.139 194.972 124.771 194.729C124.402 194.484 124.114 194.138 123.906 193.692C123.698 193.244 123.594 192.714 123.594 192.103C123.594 191.496 123.698 190.97 123.906 190.525C124.114 190.079 124.404 189.734 124.774 189.491C125.145 189.248 125.573 189.127 126.059 189.127C126.435 189.127 126.732 189.189 126.95 189.315C127.17 189.437 127.338 189.578 127.453 189.735C127.571 189.891 127.663 190.019 127.728 190.119H127.803V187.278H128.69V194.973H127.833V194.087H127.728C127.663 194.192 127.57 194.325 127.45 194.485C127.329 194.643 127.158 194.784 126.935 194.91C126.712 195.032 126.415 195.094 126.044 195.094ZM126.165 194.297C126.52 194.297 126.821 194.204 127.066 194.019C127.312 193.831 127.498 193.572 127.626 193.241C127.754 192.908 127.818 192.524 127.818 192.088C127.818 191.657 127.755 191.28 127.63 190.957C127.505 190.631 127.319 190.378 127.074 190.198C126.828 190.015 126.525 189.923 126.165 189.923C125.789 189.923 125.476 190.02 125.225 190.213C124.977 190.403 124.791 190.662 124.665 190.99C124.543 191.316 124.481 191.682 124.481 192.088C124.481 192.498 124.544 192.872 124.669 193.207C124.797 193.541 124.985 193.806 125.233 194.004C125.483 194.199 125.794 194.297 126.165 194.297ZM133.112 188.105V187.278H138.884V188.105H136.464V194.973H135.532V188.105H133.112ZM141.088 191.501V194.973H140.202V187.278H141.088V190.104H141.164C141.299 189.806 141.502 189.569 141.772 189.394C142.045 189.216 142.408 189.127 142.862 189.127C143.255 189.127 143.6 189.206 143.895 189.363C144.191 189.519 144.42 189.758 144.583 190.081C144.748 190.402 144.831 190.81 144.831 191.306V194.973H143.944V191.366C143.944 190.908 143.825 190.553 143.587 190.303C143.352 190.05 143.025 189.923 142.606 189.923C142.316 189.923 142.055 189.985 141.825 190.107C141.597 190.23 141.417 190.409 141.284 190.645C141.153 190.88 141.088 191.166 141.088 191.501ZM148.873 195.094C148.317 195.094 147.837 194.971 147.434 194.725C147.033 194.477 146.724 194.132 146.506 193.688C146.29 193.242 146.183 192.724 146.183 192.133C146.183 191.542 146.29 191.021 146.506 190.57C146.724 190.116 147.027 189.763 147.415 189.51C147.806 189.254 148.262 189.127 148.783 189.127C149.083 189.127 149.38 189.177 149.673 189.277C149.966 189.377 150.233 189.54 150.474 189.766C150.714 189.988 150.906 190.284 151.049 190.652C151.191 191.021 151.263 191.474 151.263 192.012V192.388H146.814V191.622H150.361C150.361 191.296 150.296 191.005 150.166 190.75C150.038 190.494 149.855 190.293 149.617 190.145C149.381 189.997 149.103 189.923 148.783 189.923C148.43 189.923 148.124 190.011 147.866 190.186C147.61 190.359 147.414 190.585 147.276 190.863C147.138 191.141 147.069 191.439 147.069 191.757V192.268C147.069 192.704 147.144 193.073 147.295 193.376C147.448 193.677 147.659 193.906 147.93 194.064C148.2 194.219 148.515 194.297 148.873 194.297C149.106 194.297 149.316 194.264 149.504 194.199C149.695 194.132 149.859 194.032 149.996 193.899C150.134 193.763 150.241 193.596 150.316 193.395L151.173 193.636C151.082 193.926 150.931 194.182 150.718 194.402C150.505 194.62 150.242 194.791 149.929 194.913C149.616 195.034 149.264 195.094 148.873 195.094ZM161.81 187.278V194.973H160.908L156.715 188.931H156.64V194.973H155.708V187.278H156.61L160.818 193.335H160.893V187.278H161.81ZM165.253 195.109C164.887 195.109 164.555 195.04 164.257 194.902C163.959 194.762 163.722 194.56 163.547 194.297C163.372 194.032 163.284 193.711 163.284 193.335C163.284 193.004 163.349 192.736 163.479 192.531C163.609 192.323 163.784 192.16 164.002 192.043C164.219 191.925 164.46 191.837 164.723 191.78C164.988 191.719 165.255 191.672 165.523 191.637C165.874 191.592 166.158 191.558 166.376 191.535C166.597 191.51 166.757 191.469 166.857 191.411C166.96 191.354 167.011 191.253 167.011 191.111V191.081C167.011 190.71 166.91 190.422 166.707 190.216C166.507 190.011 166.202 189.908 165.794 189.908C165.37 189.908 165.039 190.001 164.798 190.186C164.558 190.372 164.389 190.57 164.291 190.78L163.449 190.479C163.599 190.129 163.8 189.856 164.05 189.66C164.303 189.462 164.579 189.325 164.877 189.247C165.178 189.167 165.473 189.127 165.764 189.127C165.949 189.127 166.162 189.149 166.403 189.194C166.646 189.237 166.88 189.326 167.105 189.461C167.333 189.596 167.522 189.801 167.673 190.074C167.823 190.347 167.898 190.712 167.898 191.171V194.973H167.011V194.192H166.966C166.906 194.317 166.806 194.451 166.666 194.594C166.525 194.737 166.339 194.858 166.106 194.958C165.873 195.059 165.588 195.109 165.253 195.109ZM165.388 194.312C165.739 194.312 166.034 194.243 166.275 194.105C166.518 193.968 166.701 193.79 166.823 193.572C166.949 193.354 167.011 193.125 167.011 192.884V192.073C166.974 192.118 166.891 192.159 166.763 192.197C166.638 192.232 166.493 192.263 166.327 192.291C166.165 192.316 166.006 192.338 165.85 192.358C165.697 192.376 165.573 192.391 165.478 192.403C165.248 192.433 165.032 192.482 164.832 192.55C164.634 192.615 164.474 192.714 164.351 192.847C164.231 192.977 164.171 193.155 164.171 193.38C164.171 193.688 164.285 193.921 164.513 194.079C164.743 194.234 165.035 194.312 165.388 194.312ZM170.343 192.869L170.328 191.772H170.509L173.034 189.202H174.131L171.44 191.922H171.365L170.343 192.869ZM169.517 194.973V187.278H170.403V194.973H169.517ZM173.184 194.973L170.929 192.118L171.561 191.501L174.311 194.973H173.184ZM177.454 195.094C176.898 195.094 176.418 194.971 176.015 194.725C175.614 194.477 175.305 194.132 175.087 193.688C174.872 193.242 174.764 192.724 174.764 192.133C174.764 191.542 174.872 191.021 175.087 190.57C175.305 190.116 175.608 189.763 175.996 189.51C176.387 189.254 176.843 189.127 177.364 189.127C177.665 189.127 177.962 189.177 178.255 189.277C178.548 189.377 178.814 189.54 179.055 189.766C179.295 189.988 179.487 190.284 179.63 190.652C179.773 191.021 179.844 191.474 179.844 192.012V192.388H175.395V191.622H178.942C178.942 191.296 178.877 191.005 178.747 190.75C178.619 190.494 178.436 190.293 178.198 190.145C177.963 189.997 177.685 189.923 177.364 189.923C177.011 189.923 176.705 190.011 176.447 190.186C176.192 190.359 175.995 190.585 175.857 190.863C175.72 191.141 175.651 191.439 175.651 191.757V192.268C175.651 192.704 175.726 193.073 175.876 193.376C176.029 193.677 176.241 193.906 176.511 194.064C176.782 194.219 177.096 194.297 177.454 194.297C177.687 194.297 177.898 194.264 178.086 194.199C178.276 194.132 178.44 194.032 178.578 193.899C178.716 193.763 178.822 193.596 178.897 193.395L179.754 193.636C179.664 193.926 179.512 194.182 179.299 194.402C179.086 194.62 178.823 194.791 178.51 194.913C178.197 195.034 177.845 195.094 177.454 195.094ZM183.372 195.094C182.891 195.094 182.467 194.972 182.099 194.729C181.73 194.484 181.442 194.138 181.234 193.692C181.026 193.244 180.922 192.714 180.922 192.103C180.922 191.496 181.026 190.97 181.234 190.525C181.442 190.079 181.732 189.734 182.102 189.491C182.473 189.248 182.901 189.127 183.387 189.127C183.763 189.127 184.06 189.189 184.278 189.315C184.498 189.437 184.666 189.578 184.781 189.735C184.899 189.891 184.991 190.019 185.056 190.119H185.131V187.278H186.018V194.973H185.161V194.087H185.056C184.991 194.192 184.898 194.325 184.778 194.485C184.657 194.643 184.486 194.784 184.263 194.91C184.04 195.032 183.743 195.094 183.372 195.094ZM183.493 194.297C183.848 194.297 184.149 194.204 184.394 194.019C184.64 193.831 184.826 193.572 184.954 193.241C185.082 192.908 185.146 192.524 185.146 192.088C185.146 191.657 185.083 191.28 184.958 190.957C184.833 190.631 184.647 190.378 184.402 190.198C184.156 190.015 183.853 189.923 183.493 189.923C183.117 189.923 182.804 190.02 182.553 190.213C182.305 190.403 182.119 190.662 181.993 190.99C181.871 191.316 181.809 191.682 181.809 192.088C181.809 192.498 181.872 192.872 181.997 193.207C182.125 193.541 182.313 193.806 182.561 194.004C182.811 194.199 183.122 194.297 183.493 194.297ZM190.861 194.973V187.278H195.505V188.105H191.793V190.705H195.265V191.532H191.793V194.147H195.565V194.973H190.861ZM197.636 197.138C197.485 197.138 197.351 197.125 197.234 197.1C197.116 197.078 197.035 197.055 196.989 197.032L197.215 196.251C197.43 196.306 197.621 196.326 197.786 196.311C197.951 196.296 198.098 196.222 198.226 196.089C198.356 195.959 198.475 195.747 198.583 195.454L198.748 195.003L196.614 189.202H197.576L199.169 193.801H199.229L200.822 189.202H201.784L199.334 195.815C199.224 196.113 199.087 196.36 198.925 196.555C198.762 196.753 198.573 196.9 198.357 196.995C198.144 197.09 197.904 197.138 197.636 197.138ZM205.168 195.094C204.611 195.094 204.132 194.971 203.728 194.725C203.328 194.477 203.018 194.132 202.8 193.688C202.585 193.242 202.477 192.724 202.477 192.133C202.477 191.542 202.585 191.021 202.8 190.57C203.018 190.116 203.321 189.763 203.71 189.51C204.1 189.254 204.556 189.127 205.077 189.127C205.378 189.127 205.675 189.177 205.968 189.277C206.261 189.377 206.528 189.54 206.768 189.766C207.009 189.988 207.2 190.284 207.343 190.652C207.486 191.021 207.557 191.474 207.557 192.012V192.388H203.108V191.622H206.656C206.656 191.296 206.59 191.005 206.46 190.75C206.332 190.494 206.15 190.293 205.912 190.145C205.676 189.997 205.398 189.923 205.077 189.923C204.724 189.923 204.419 190.011 204.161 190.186C203.905 190.359 203.708 190.585 203.571 190.863C203.433 191.141 203.364 191.439 203.364 191.757V192.268C203.364 192.704 203.439 193.073 203.589 193.376C203.742 193.677 203.954 193.906 204.224 194.064C204.495 194.219 204.809 194.297 205.168 194.297C205.401 194.297 205.611 194.264 205.799 194.199C205.989 194.132 206.153 194.032 206.291 193.899C206.429 193.763 206.535 193.596 206.61 193.395L207.467 193.636C207.377 193.926 207.225 194.182 207.013 194.402C206.8 194.62 206.537 194.791 206.223 194.913C205.91 195.034 205.558 195.094 205.168 195.094Z" fill="#12141D"/>
<path opacity="0.7" d="M278.752 195.871V188.657H279.214V195.871H278.752ZM280.308 190.821C280.274 190.536 280.137 190.314 279.896 190.156C279.656 189.998 279.361 189.919 279.012 189.919C278.756 189.919 278.533 189.961 278.341 190.043C278.151 190.126 278.003 190.24 277.896 190.384C277.791 190.529 277.738 190.693 277.738 190.877C277.738 191.031 277.775 191.164 277.848 191.275C277.923 191.384 278.019 191.475 278.135 191.548C278.252 191.619 278.374 191.679 278.502 191.726C278.629 191.771 278.747 191.807 278.854 191.835L279.44 191.993C279.59 192.033 279.757 192.087 279.941 192.157C280.127 192.226 280.305 192.321 280.474 192.441C280.645 192.56 280.786 192.712 280.897 192.898C281.008 193.084 281.063 193.312 281.063 193.582C281.063 193.894 280.981 194.176 280.818 194.428C280.656 194.68 280.42 194.88 280.108 195.028C279.798 195.176 279.421 195.251 278.978 195.251C278.564 195.251 278.207 195.184 277.904 195.051C277.604 194.917 277.367 194.731 277.194 194.493C277.023 194.254 276.926 193.977 276.904 193.661H277.625C277.644 193.879 277.717 194.06 277.845 194.202C277.975 194.343 278.138 194.448 278.335 194.518C278.534 194.586 278.749 194.619 278.978 194.619C279.245 194.619 279.484 194.576 279.696 194.49C279.909 194.402 280.077 194.279 280.201 194.123C280.325 193.966 280.387 193.782 280.387 193.571C280.387 193.38 280.333 193.224 280.226 193.103C280.119 192.983 279.978 192.886 279.803 192.81C279.629 192.735 279.44 192.67 279.237 192.613L278.527 192.41C278.076 192.281 277.719 192.096 277.456 191.855C277.193 191.615 277.062 191.3 277.062 190.911C277.062 190.588 277.149 190.306 277.324 190.066C277.5 189.824 277.737 189.636 278.034 189.502C278.333 189.367 278.666 189.299 279.034 189.299C279.406 189.299 279.737 189.366 280.026 189.5C280.315 189.631 280.544 189.811 280.714 190.041C280.884 190.27 280.975 190.53 280.984 190.821H280.308ZM284.139 189.378V195.149H283.44V190.111H283.407L281.998 191.046V190.336L283.44 189.378H284.139ZM287.681 195.228C287.257 195.228 286.895 195.113 286.596 194.881C286.298 194.649 286.069 194.311 285.912 193.87C285.754 193.427 285.675 192.891 285.675 192.264C285.675 191.64 285.754 191.108 285.912 190.666C286.071 190.223 286.3 189.885 286.599 189.652C286.9 189.417 287.26 189.299 287.681 189.299C288.102 189.299 288.462 189.417 288.76 189.652C289.061 189.885 289.29 190.223 289.448 190.666C289.608 191.108 289.687 191.64 289.687 192.264C289.687 192.891 289.609 193.427 289.451 193.87C289.293 194.311 289.065 194.649 288.766 194.881C288.467 195.113 288.106 195.228 287.681 195.228ZM287.681 194.608C288.102 194.608 288.429 194.405 288.662 194C288.895 193.594 289.011 193.015 289.011 192.264C289.011 191.764 288.958 191.339 288.851 190.987C288.745 190.636 288.593 190.368 288.394 190.184C288.197 190 287.959 189.908 287.681 189.908C287.264 189.908 286.938 190.114 286.703 190.525C286.469 190.935 286.351 191.514 286.351 192.264C286.351 192.763 286.404 193.188 286.509 193.537C286.614 193.887 286.765 194.153 286.963 194.335C287.162 194.517 287.401 194.608 287.681 194.608ZM290.623 193.966V193.391L293.159 189.378H293.576V190.269H293.294L291.378 193.301V193.346H294.793V193.966H290.623ZM293.339 195.149V193.791V193.523V189.378H294.004V195.149H293.339ZM297.731 195.228C297.307 195.228 296.945 195.113 296.647 194.881C296.348 194.649 296.12 194.311 295.962 193.87C295.804 193.427 295.725 192.891 295.725 192.264C295.725 191.64 295.804 191.108 295.962 190.666C296.122 190.223 296.351 189.885 296.649 189.652C296.95 189.417 297.311 189.299 297.731 189.299C298.152 189.299 298.512 189.417 298.811 189.652C299.111 189.885 299.34 190.223 299.498 190.666C299.658 191.108 299.738 191.64 299.738 192.264C299.738 192.891 299.659 193.427 299.501 193.87C299.343 194.311 299.115 194.649 298.816 194.881C298.518 195.113 298.156 195.228 297.731 195.228ZM297.731 194.608C298.152 194.608 298.479 194.405 298.712 194C298.945 193.594 299.061 193.015 299.061 192.264C299.061 191.764 299.008 191.339 298.901 190.987C298.796 190.636 298.643 190.368 298.444 190.184C298.247 190 298.009 189.908 297.731 189.908C297.314 189.908 296.989 190.114 296.754 190.525C296.519 190.935 296.401 191.514 296.401 192.264C296.401 192.763 296.454 193.188 296.559 193.537C296.664 193.887 296.816 194.153 297.013 194.335C297.212 194.517 297.452 194.608 297.731 194.608ZM301.103 195.194C300.964 195.194 300.845 195.144 300.745 195.045C300.646 194.945 300.596 194.826 300.596 194.687C300.596 194.548 300.646 194.429 300.745 194.329C300.845 194.23 300.964 194.18 301.103 194.18C301.242 194.18 301.361 194.23 301.461 194.329C301.56 194.429 301.61 194.548 301.61 194.687C301.61 194.779 301.587 194.864 301.54 194.941C301.495 195.018 301.434 195.08 301.357 195.127C301.281 195.172 301.197 195.194 301.103 195.194ZM304.473 195.228C304.048 195.228 303.687 195.113 303.388 194.881C303.089 194.649 302.861 194.311 302.703 193.87C302.546 193.427 302.467 192.891 302.467 192.264C302.467 191.64 302.546 191.108 302.703 190.666C302.863 190.223 303.092 189.885 303.391 189.652C303.692 189.417 304.052 189.299 304.473 189.299C304.894 189.299 305.254 189.417 305.552 189.652C305.853 189.885 306.082 190.223 306.24 190.666C306.399 191.108 306.479 191.64 306.479 192.264C306.479 192.891 306.4 193.427 306.243 193.87C306.085 194.311 305.857 194.649 305.558 194.881C305.259 195.113 304.898 195.228 304.473 195.228ZM304.473 194.608C304.894 194.608 305.221 194.405 305.454 194C305.687 193.594 305.803 193.015 305.803 192.264C305.803 191.764 305.749 191.339 305.642 190.987C305.537 190.636 305.385 190.368 305.186 190.184C304.989 190 304.751 189.908 304.473 189.908C304.056 189.908 303.73 190.114 303.495 190.525C303.26 190.935 303.143 191.514 303.143 192.264C303.143 192.763 303.196 193.188 303.301 193.537C303.406 193.887 303.557 194.153 303.754 194.335C303.954 194.517 304.193 194.608 304.473 194.608ZM309.432 195.228C309.008 195.228 308.646 195.113 308.347 194.881C308.049 194.649 307.821 194.311 307.663 193.87C307.505 193.427 307.426 192.891 307.426 192.264C307.426 191.64 307.505 191.108 307.663 190.666C307.822 190.223 308.052 189.885 308.35 189.652C308.651 189.417 309.011 189.299 309.432 189.299C309.853 189.299 310.213 189.417 310.511 189.652C310.812 189.885 311.041 190.223 311.199 190.666C311.359 191.108 311.439 191.64 311.439 192.264C311.439 192.891 311.36 193.427 311.202 193.87C311.044 194.311 310.816 194.649 310.517 194.881C310.218 195.113 309.857 195.228 309.432 195.228ZM309.432 194.608C309.853 194.608 310.18 194.405 310.413 194C310.646 193.594 310.762 193.015 310.762 192.264C310.762 191.764 310.709 191.339 310.602 190.987C310.496 190.636 310.344 190.368 310.145 190.184C309.948 190 309.71 189.908 309.432 189.908C309.015 189.908 308.689 190.114 308.455 190.525C308.22 190.935 308.102 191.514 308.102 192.264C308.102 192.763 308.155 193.188 308.26 193.537C308.365 193.887 308.517 194.153 308.714 194.335C308.913 194.517 309.152 194.608 309.432 194.608Z" fill="black"/>
<path fill-rule="evenodd" clip-rule="evenodd" d="M92.0024 205.42C92.0024 204.168 93.0175 203.153 94.2695 203.153H309.644C310.896 203.153 311.911 204.168 311.911 205.42C311.911 206.672 310.896 207.687 309.644 207.687H94.2695C93.0175 207.687 92.0024 206.672 92.0024 205.42Z" fill="#FFC83E" fill-opacity="0.1"/>
<path fill-rule="evenodd" clip-rule="evenodd" d="M92.0024 205.42C92.0024 204.168 93.0175 203.153 94.2695 203.153H207.625C208.877 203.153 209.892 204.168 209.892 205.42C209.892 206.672 208.877 207.687 207.625 207.687H94.2695C93.0175 207.687 92.0024 206.672 92.0024 205.42Z" fill="#FABB18"/>
</g>
<path d="M91.9738 67.6576V66.2294H99.4779V67.6576H96.5709V75.6348H94.8809V67.6576H91.9738ZM101.921 75.7771C101.474 75.7771 101.072 75.6975 100.713 75.5383C100.358 75.3761 100.077 75.1372 99.8683 74.8219C99.6632 74.5065 99.5606 74.1177 99.5606 73.6554C99.5606 73.2574 99.6341 72.9283 99.7811 72.668C99.928 72.4078 100.129 72.1996 100.383 72.0434C100.637 71.8873 100.923 71.7694 101.241 71.6898C101.563 71.6072 101.895 71.5475 102.238 71.5107C102.651 71.4679 102.987 71.4296 103.244 71.3959C103.501 71.3592 103.688 71.3041 103.804 71.2306C103.923 71.154 103.983 71.0362 103.983 70.877V70.8494C103.983 70.5034 103.881 70.2355 103.675 70.0457C103.47 69.8559 103.175 69.761 102.789 69.761C102.382 69.761 102.059 69.8498 101.82 70.0273C101.584 70.2049 101.425 70.4146 101.342 70.6565L99.7902 70.4361C99.9127 70.0074 100.115 69.6492 100.396 69.3614C100.678 69.0706 101.023 68.8532 101.43 68.7093C101.837 68.5623 102.287 68.4889 102.78 68.4889C103.12 68.4889 103.458 68.5287 103.795 68.6083C104.132 68.6879 104.439 68.8195 104.718 69.0032C104.997 69.1839 105.22 69.4303 105.388 69.7426C105.56 70.0549 105.646 70.4453 105.646 70.9137V75.6348H104.047V74.6658H103.992C103.891 74.8617 103.749 75.0454 103.565 75.2168C103.385 75.3852 103.157 75.5215 102.881 75.6256C102.608 75.7266 102.289 75.7771 101.921 75.7771ZM102.353 74.5555C102.687 74.5555 102.976 74.4897 103.221 74.3581C103.466 74.2233 103.654 74.0458 103.786 73.8253C103.92 73.6049 103.988 73.3645 103.988 73.1043V72.2731C103.936 72.3159 103.847 72.3557 103.721 72.3925C103.599 72.4292 103.461 72.4614 103.308 72.4889C103.155 72.5165 103.003 72.541 102.853 72.5624C102.703 72.5838 102.573 72.6022 102.463 72.6175C102.215 72.6512 101.993 72.7063 101.797 72.7828C101.601 72.8594 101.447 72.9665 101.333 73.1043C101.22 73.239 101.163 73.4135 101.163 73.6279C101.163 73.934 101.275 74.1652 101.499 74.3213C101.722 74.4775 102.007 74.5555 102.353 74.5555ZM112.893 70.4453L111.377 70.6106C111.334 70.4575 111.259 70.3136 111.152 70.1789C111.048 70.0442 110.907 69.9355 110.73 69.8528C110.552 69.7702 110.335 69.7288 110.077 69.7288C109.731 69.7288 109.441 69.8038 109.205 69.9539C108.972 70.1039 108.857 70.2983 108.86 70.5371C108.857 70.7422 108.932 70.9091 109.085 71.0377C109.242 71.1663 109.499 71.2719 109.857 71.3546L111.06 71.6118C111.728 71.7556 112.224 71.9837 112.548 72.296C112.876 72.6083 113.041 73.0171 113.044 73.5222C113.041 73.9662 112.911 74.3581 112.654 74.6979C112.4 75.0347 112.046 75.298 111.593 75.4878C111.14 75.6776 110.619 75.7725 110.031 75.7725C109.168 75.7725 108.473 75.5919 107.946 75.2306C107.42 74.8663 107.106 74.3596 107.005 73.7105L108.626 73.5544C108.7 73.8728 108.856 74.1131 109.095 74.2754C109.333 74.4377 109.644 74.5188 110.027 74.5188C110.422 74.5188 110.739 74.4377 110.978 74.2754C111.219 74.1131 111.34 73.9126 111.34 73.6738C111.34 73.4717 111.262 73.3048 111.106 73.1732C110.953 73.0415 110.714 72.9405 110.39 72.8701L109.186 72.6175C108.51 72.4767 108.009 72.2394 107.685 71.9057C107.36 71.5689 107.199 71.1433 107.203 70.629C107.199 70.1942 107.317 69.8176 107.556 69.4992C107.798 69.1777 108.133 68.9297 108.562 68.7552C108.994 68.5777 109.491 68.4889 110.054 68.4889C110.881 68.4889 111.532 68.6649 112.006 69.017C112.484 69.3691 112.779 69.8452 112.893 70.4453ZM115.931 73.4212L115.926 71.4143H116.192L118.727 68.5807H120.67L117.552 72.0526H117.207L115.931 73.4212ZM114.415 75.6348V66.2294H116.077V75.6348H114.415ZM118.842 75.6348L116.546 72.4246L117.666 71.2535L120.831 75.6348H118.842ZM125.059 75.6348V66.2294H128.586C129.309 66.2294 129.915 66.3641 130.405 66.6335C130.898 66.9029 131.27 67.2734 131.521 67.7449C131.775 68.2133 131.902 68.746 131.902 69.3431C131.902 69.9462 131.775 70.482 131.521 70.9504C131.267 71.4189 130.892 71.7878 130.396 72.0572C129.9 72.3236 129.289 72.4568 128.563 72.4568H126.226V71.0561H128.334C128.756 71.0561 129.102 70.9826 129.372 70.8356C129.641 70.6887 129.84 70.4866 129.969 70.2294C130.1 69.9722 130.166 69.6768 130.166 69.3431C130.166 69.0093 130.1 68.7154 129.969 68.4613C129.84 68.2072 129.639 68.0097 129.367 67.8689C129.098 67.725 128.75 67.653 128.324 67.653H126.763V75.6348H125.059ZM133.308 75.6348V68.5807H134.92V69.7564H134.994C135.123 69.3492 135.343 69.0354 135.655 68.8149C135.971 68.5914 136.33 68.4797 136.734 68.4797C136.826 68.4797 136.929 68.4843 137.042 68.4935C137.159 68.4996 137.255 68.5103 137.331 68.5256V70.0549C137.261 70.0304 137.149 70.009 136.996 69.9906C136.846 69.9692 136.701 69.9585 136.56 69.9585C136.257 69.9585 135.984 70.0243 135.742 70.1559C135.504 70.2845 135.315 70.4636 135.178 70.6933C135.04 70.9229 134.971 71.1877 134.971 71.4878V75.6348H133.308ZM141.222 75.7725C140.534 75.7725 139.937 75.621 139.431 75.3179C138.926 75.0148 138.534 74.5907 138.256 74.0458C137.98 73.5008 137.842 72.864 137.842 72.1353C137.842 71.4066 137.98 70.7683 138.256 70.2202C138.534 69.6722 138.926 69.2466 139.431 68.9435C139.937 68.6404 140.534 68.4889 141.222 68.4889C141.911 68.4889 142.508 68.6404 143.014 68.9435C143.519 69.2466 143.909 69.6722 144.185 70.2202C144.463 70.7683 144.603 71.4066 144.603 72.1353C144.603 72.864 144.463 73.5008 144.185 74.0458C143.909 74.5907 143.519 75.0148 143.014 75.3179C142.508 75.621 141.911 75.7725 141.222 75.7725ZM141.232 74.4407C141.605 74.4407 141.917 74.3382 142.169 74.133C142.42 73.9248 142.606 73.6462 142.729 73.2972C142.854 72.9482 142.917 72.5593 142.917 72.1307C142.917 71.699 142.854 71.3086 142.729 70.9596C142.606 70.6075 142.42 70.3274 142.169 70.1192C141.917 69.911 141.605 69.8069 141.232 69.8069C140.849 69.8069 140.531 69.911 140.276 70.1192C140.025 70.3274 139.837 70.6075 139.712 70.9596C139.589 71.3086 139.528 71.699 139.528 72.1307C139.528 72.5593 139.589 72.9482 139.712 73.2972C139.837 73.6462 140.025 73.9248 140.276 74.133C140.531 74.3382 140.849 74.4407 141.232 74.4407ZM149.081 78.427C148.484 78.427 147.972 78.3459 147.543 78.1836C147.114 78.0244 146.77 77.8101 146.51 77.5406C146.249 77.2712 146.069 76.9727 145.968 76.6451L147.465 76.2823C147.532 76.4201 147.63 76.5563 147.759 76.691C147.887 76.8288 148.06 76.9421 148.278 77.0309C148.498 77.1227 148.775 77.1687 149.109 77.1687C149.58 77.1687 149.971 77.0538 150.28 76.8242C150.589 76.5977 150.744 76.2241 150.744 75.7037V74.3672H150.661C150.575 74.5387 150.45 74.7147 150.285 74.8954C150.122 75.076 149.906 75.2276 149.637 75.35C149.371 75.4725 149.035 75.5337 148.631 75.5337C148.089 75.5337 147.598 75.4067 147.157 75.1526C146.719 74.8954 146.37 74.5127 146.11 74.0044C145.853 73.4931 145.724 72.8533 145.724 72.0848C145.724 71.3102 145.853 70.6565 146.11 70.1238C146.37 69.588 146.721 69.1823 147.162 68.9068C147.603 68.6282 148.094 68.4889 148.636 68.4889C149.049 68.4889 149.389 68.5593 149.655 68.7001C149.925 68.8379 150.139 69.0048 150.298 69.2007C150.458 69.3936 150.579 69.5757 150.661 69.7472H150.753V68.5807H152.393V75.7496C152.393 76.3527 152.249 76.8518 151.961 77.2467C151.673 77.6417 151.28 77.9371 150.781 78.1331C150.282 78.329 149.715 78.427 149.081 78.427ZM149.095 74.2295C149.447 74.2295 149.747 74.1437 149.995 73.9723C150.243 73.8008 150.432 73.5544 150.56 73.2329C150.689 72.9114 150.753 72.5257 150.753 72.0756C150.753 71.6317 150.689 71.2428 150.56 70.9091C150.435 70.5754 150.248 70.3167 150 70.133C149.755 69.9462 149.453 69.8528 149.095 69.8528C148.725 69.8528 148.415 69.9493 148.167 70.1422C147.919 70.335 147.733 70.5999 147.607 70.9367C147.482 71.2704 147.419 71.65 147.419 72.0756C147.419 72.5073 147.482 72.8854 147.607 73.2099C147.736 73.5314 147.924 73.7825 148.172 73.9631C148.423 74.1407 148.731 74.2295 149.095 74.2295ZM154.096 75.6348V68.5807H155.708V69.7564H155.782C155.91 69.3492 156.131 69.0354 156.443 68.8149C156.758 68.5914 157.118 68.4797 157.522 68.4797C157.614 68.4797 157.717 68.4843 157.83 68.4935C157.946 68.4996 158.043 68.5103 158.119 68.5256V70.0549C158.049 70.0304 157.937 70.009 157.784 69.9906C157.634 69.9692 157.489 69.9585 157.348 69.9585C157.045 69.9585 156.772 70.0243 156.53 70.1559C156.292 70.2845 156.103 70.4636 155.965 70.6933C155.828 70.9229 155.759 71.1877 155.759 71.4878V75.6348H154.096ZM162.056 75.7725C161.349 75.7725 160.738 75.6256 160.224 75.3317C159.713 75.0347 159.319 74.6152 159.044 74.0733C158.768 73.5283 158.63 72.8869 158.63 72.1491C158.63 71.4235 158.768 70.7866 159.044 70.2386C159.322 69.6875 159.711 69.2589 160.21 68.9527C160.709 68.6435 161.295 68.4889 161.969 68.4889C162.404 68.4889 162.814 68.5593 163.2 68.7001C163.589 68.8379 163.932 69.0522 164.229 69.3431C164.529 69.6339 164.764 70.0044 164.936 70.4544C165.107 70.9014 165.193 71.4342 165.193 72.0526V72.5624H159.411V71.4418H163.599C163.596 71.1234 163.527 70.8402 163.393 70.5922C163.258 70.3412 163.07 70.1437 162.828 69.9998C162.589 69.8559 162.31 69.7839 161.992 69.7839C161.652 69.7839 161.354 69.8666 161.096 70.0319C160.839 70.1942 160.639 70.4085 160.495 70.6749C160.354 70.9382 160.282 71.2275 160.279 71.5429V72.5211C160.279 72.9313 160.354 73.2834 160.504 73.5773C160.654 73.8682 160.864 74.0917 161.133 74.2478C161.403 74.4009 161.718 74.4775 162.079 74.4775C162.321 74.4775 162.54 74.4438 162.736 74.3764C162.932 74.306 163.102 74.2034 163.246 74.0687C163.39 73.934 163.498 73.7672 163.572 73.5681L165.124 73.7427C165.026 74.1529 164.839 74.5111 164.564 74.8173C164.291 75.1204 163.942 75.3562 163.517 75.5245C163.091 75.6899 162.604 75.7725 162.056 75.7725ZM172.175 70.4453L170.659 70.6106C170.616 70.4575 170.541 70.3136 170.434 70.1789C170.33 70.0442 170.189 69.9355 170.012 69.8528C169.834 69.7702 169.617 69.7288 169.359 69.7288C169.013 69.7288 168.723 69.8038 168.487 69.9539C168.254 70.1039 168.139 70.2983 168.142 70.5371C168.139 70.7422 168.214 70.9091 168.367 71.0377C168.524 71.1663 168.781 71.2719 169.139 71.3546L170.342 71.6118C171.01 71.7556 171.506 71.9837 171.83 72.296C172.158 72.6083 172.323 73.0171 172.326 73.5222C172.323 73.9662 172.193 74.3581 171.936 74.6979C171.682 75.0347 171.328 75.298 170.875 75.4878C170.422 75.6776 169.901 75.7725 169.314 75.7725C168.45 75.7725 167.755 75.5919 167.229 75.2306C166.702 74.8663 166.388 74.3596 166.287 73.7105L167.908 73.5544C167.982 73.8728 168.138 74.1131 168.377 74.2754C168.615 74.4377 168.926 74.5188 169.309 74.5188C169.704 74.5188 170.021 74.4377 170.26 74.2754C170.501 74.1131 170.622 73.9126 170.622 73.6738C170.622 73.4717 170.544 73.3048 170.388 73.1732C170.235 73.0415 169.996 72.9405 169.672 72.8701L168.469 72.6175C167.792 72.4767 167.291 72.2394 166.967 71.9057C166.642 71.5689 166.482 71.1433 166.485 70.629C166.482 70.1942 166.599 69.8176 166.838 69.4992C167.08 69.1777 167.415 68.9297 167.844 68.7552C168.276 68.5777 168.773 68.4889 169.337 68.4889C170.163 68.4889 170.814 68.6649 171.288 69.017C171.766 69.3691 172.061 69.8452 172.175 70.4453ZM179.272 70.4453L177.757 70.6106C177.714 70.4575 177.639 70.3136 177.532 70.1789C177.428 70.0442 177.287 69.9355 177.109 69.8528C176.932 69.7702 176.714 69.7288 176.457 69.7288C176.111 69.7288 175.82 69.8038 175.585 69.9539C175.352 70.1039 175.237 70.2983 175.24 70.5371C175.237 70.7422 175.312 70.9091 175.465 71.0377C175.621 71.1663 175.878 71.2719 176.237 71.3546L177.44 71.6118C178.107 71.7556 178.603 71.9837 178.928 72.296C179.256 72.6083 179.421 73.0171 179.424 73.5222C179.421 73.9662 179.291 74.3581 179.034 74.6979C178.779 75.0347 178.426 75.298 177.973 75.4878C177.52 75.6776 176.999 75.7725 176.411 75.7725C175.548 75.7725 174.853 75.5919 174.326 75.2306C173.8 74.8663 173.486 74.3596 173.385 73.7105L175.006 73.5544C175.079 73.8728 175.236 74.1131 175.474 74.2754C175.713 74.4377 176.024 74.5188 176.407 74.5188C176.802 74.5188 177.118 74.4377 177.357 74.2754C177.599 74.1131 177.72 73.9126 177.72 73.6738C177.72 73.4717 177.642 73.3048 177.486 73.1732C177.333 73.0415 177.094 72.9405 176.769 72.8701L175.566 72.6175C174.89 72.4767 174.389 72.2394 174.064 71.9057C173.74 71.5689 173.579 71.1433 173.582 70.629C173.579 70.1942 173.697 69.8176 173.936 69.4992C174.178 69.1777 174.513 68.9297 174.942 68.7552C175.373 68.5777 175.871 68.4889 176.434 68.4889C177.261 68.4889 177.911 68.6649 178.386 69.017C178.864 69.3691 179.159 69.8452 179.272 70.4453Z" fill="#12141D"/>
</g>
<defs>
<filter id="filter0_d_1_3428" x="0" y="0" width="404" height="332" filterUnits="userSpaceOnUse" color-interpolation-filters="sRGB">
<feFlood flood-opacity="0" result="BackgroundImageFix"/>
<feColorMatrix in="SourceAlpha" type="matrix" values="0 0 0 0 0 0 0 0 0 0 0 0 0 0 0 0 0 0 127 0" result="hardAlpha"/>
<feOffset dy="30"/>
<feGaussianBlur stdDeviation="37.5"/>
<feComposite in2="hardAlpha" operator="out"/>
<feColorMatrix type="matrix" values="0 0 0 0 0 0 0 0 0 0 0 0 0 0 0 0 0 0 0.09 0"/>
<feBlend mode="normal" in2="BackgroundImageFix" result="effect1_dropShadow_1_3428"/>
<feBlend mode="normal" in="SourceGraphic" in2="effect1_dropShadow_1_3428" result="shape"/>
</filter>
<clipPath id="clip0_1_3428">
<rect width="219.909" height="26.0717" fill="white" transform="translate(92.0024 100)"/>
</clipPath>
<clipPath id="clip1_1_3428">
<rect width="219.909" height="26.0717" fill="white" transform="translate(92.0024 143.074)"/>
</clipPath>
<clipPath id="clip2_1_3428">
<rect width="219.909" height="26.0717" fill="white" transform="translate(92.0024 186.149)"/>
</clipPath>
</defs>
</svg>
